{
.appVersion = "939";
DisplayStrings = (
"Jeremy Tribby"
);
copyright = "Copyright 2016 Jeremy Tribby. SIL OFL License v1.1.";
date = "2016-07-12 00:27:02 +0000";
designer = "Jeremy Tribby";
designerURL = "http://tribby.com/";
familyName = Barlow;
featurePrefixes = (
{
automatic = 1;
code = "languagesystem DFLT dflt;\012";
name = Languagesystems;
}
);
features = (
{
automatic = 1;
code = "sub hyphen hyphen by hyphen_hyphen.liga;\012";
name = liga;
}
);
fontMaster = (
{
alignmentZones = (
"{800, 16}",
"{700, 10}",
"{500, 9}",
"{0, -10}",
"{-200, -16}"
);
ascender = 800;
capHeight = 700;
customParameters = (
{
name = paramArea;
value = "488";
},
{
name = paramDepth;
value = "16";
},
{
name = paramOver;
value = "0";
}
);
descender = -200;
horizontalStems = (
22,
22
);
id = "262880E7-CFE1-4BDA-902E-E24798F3240A";
userData = {
GSCornerRadius = 8;
GSOffsetHorizontal = 24;
GSOffsetMakeStroke = 1;
GSOffsetPosition = 0.2;
GSOffsetVertical = 20;
noodleExtremesAndInflections = 1;
noodleRemoveOverlap = 1;
noodleThickness = "22.0";
};
verticalStems = (
21,
21
);
visible = 1;
weight = Light;
weightValue = 23;
xHeight = 500;
},
{
alignmentZones = (
"{800, 16}",
"{700, 11}",
"{509, 11}",
"{0, -11}",
"{-200, -5}"
);
ascender = 800;
capHeight = 700;
customParameters = (
{
name = paramArea;
value = "488";
},
{
name = paramDepth;
value = "16";
},
{
name = paramOver;
value = "0";
}
);
descender = -200;
horizontalStems = (
100,
100
);
id = "0BD25E4B-8A11-4E34-A837-2DA28743BADD";
verticalStems = (
90,
90
);
visible = 1;
xHeight = 509;
},
{
alignmentZones = (
"{800, 16}",
"{700, 13}",
"{520, 13}",
"{0, -13}",
"{-200, -12}"
);
ascender = 800;
capHeight = 700;
customParameters = (
{
name = paramArea;
value = "488";
},
{
name = paramDepth;
value = "16";
},
{
name = paramOver;
value = "0";
}
);
descender = -200;
horizontalStems = (
188,
188
);
id = "4E2227F3-52E4-4048-A8EE-327B486EF0A4";
userData = {
GSCornerRadius = 8;
GSOffsetHorizontal = 104;
GSOffsetMakeStroke = 1;
GSOffsetVertical = 95;

glyphs = (
{
glyphname = A;
lastChange = "2016-12-25 11:23:07 +0000";
layers = (
{
layerId = "262880E7-CFE1-4BDA-902E-E24798F3240A";
paths = (
{
closed = 1;
nodes = (
"53 0 LINE",
"237 679 LINE",
"420 0 LINE",
"443 0 LINE",
"248 721 LINE",
"225 721 LINE",
"30 0 LINE"
);
},
{
closed = 1;
nodes = (
"389 160 LINE",
"389 181 LINE",
"88 181 LINE",
"88 160 LINE"
);
}
);
width = 473;
},
{
layerId = "4E2227F3-52E4-4048-A8EE-327B486EF0A4";
paths = (
{
closed = 1;
nodes = (
"197 0 LINE",
"273 512 LINE",
"335 0 LINE",
"528 0 LINE",
"374 756 LINE",
"163 756 LINE",
"9 0 LINE"
);
},
{
closed = 1;
nodes = (
"406 109 LINE",
"406 255 LINE",
"127 255 LINE",
"127 109 LINE"
);
}
);
width = 537;
},
{
layerId = "0BD25E4B-8A11-4E34-A837-2DA28743BADD";
paths = (
{
closed = 1;
nodes = (
"121 0 LINE",
"256 588 LINE",
"384 0 LINE",
"487 0 LINE",
"309 728 LINE",
"198 728 LINE",
"21 0 LINE"
);
},
{
closed = 1;
nodes = (
"398 137 LINE",
"398 228 LINE",
"110 228 LINE",
"110 137 LINE"
);
}
);
width = 508;
}
);
leftKerningGroup = A;
rightKerningGroup = A;
unicode = 0041;
},
{
glyphname = B;
lastChange = "2016-12-25 11:23:07 +0000";
layers = (
{
layerId = "262880E7-CFE1-4BDA-902E-E24798F3240A";
paths = (
{
closed = 1;
nodes = (
"102 700 LINE",
"257 700 LINE SMOOTH",
"356 700 OFFCURVE",
"422 636 OFFCURVE",
"422 539 CURVE SMOOTH",
"422 446 OFFCURVE",
"356 384 OFFCURVE",
"257 384 CURVE SMOOTH",
"102 384 LINE"
);
},
{
closed = 1;
nodes = (
"257 363 LINE SMOOTH",
"369 363 OFFCURVE",
"444 434 OFFCURVE",
"444 539 CURVE SMOOTH",
"444 648 OFFCURVE",
"369 721 OFFCURVE",
"257 721 CURVE SMOOTH",
"80 721 LINE",
"80 363 LINE"
);
},
{
closed = 1;
nodes = (
"102 363 LINE",
"257 363 LINE SMOOTH",
"356 363 OFFCURVE",
"423 294 OFFCURVE",
"423 191 CURVE SMOOTH",
"423 90 OFFCURVE",
"356 22 OFFCURVE",
"257 22 CURVE SMOOTH",
"102 22 LINE"
);
},
{
closed = 1;
nodes = (
"257 0 LINE SMOOTH",
"369 0 OFFCURVE",
"445 76 OFFCURVE",
"445 192 CURVE SMOOTH",
"445 308 OFFCURVE",
"369 384 OFFCURVE",
"257 384 CURVE SMOOTH",
"80 384 LINE",
"80 0 LINE"
);
}
);
width = 495;
},
{
layerId = "4E2227F3-52E4-4048-A8EE-327B486EF0A4";
paths = (
{
closed = 1;
nodes = (
"212 586 LINE",
"232 586 LINE",
"268 586 OFFCURVE",
"286 561 OFFCURVE",
"286 521 CURVE SMOOTH",
"286 482 OFFCURVE",
"268 457 OFFCURVE",
"232 457 CURVE",
"212 457 LINE"
);
},
{
closed = 1;
nodes = (
"196 346 LINE SMOOTH",
"379 346 OFFCURVE",
"470 404 OFFCURVE",
"470 545 CURVE SMOOTH",
"470 689 OFFCURVE",
"374 756 OFFCURVE",
"229 756 CURVE",
"24 756 LINE",
"24 346 LINE"
);
},
{
closed = 1;
nodes = (
"212 315 LINE",
"244 315 LINE SMOOTH",
"275 315 OFFCURVE",
"295 282 OFFCURVE",
"295 239 CURVE SMOOTH",
"295 196 OFFCURVE",
"274 170 OFFCURVE",
"243 170 CURVE SMOOTH",
"212 170 LINE"
);
},
{
closed = 1;
nodes = (
"258 0 LINE SMOOTH",
"383 0 OFFCURVE",
"483 70 OFFCURVE",
"483 219 CURVE SMOOTH",
"483 378 OFFCURVE",
"321 444 OFFCURVE",
"196 444 CURVE",
"24 444 LINE",
"24 0 LINE"
);
}
);
width = 498;
},
{
layerId = "0BD25E4B-8A11-4E34-A837-2DA28743BADD";
paths = (
{
closed = 1;
nodes = (
"156 638 LINE",
"228 638 LINE",
"292 638 OFFCURVE",
"335 592 OFFCURVE",
"335 525 CURVE SMOOTH",
"335 459 OFFCURVE",
"292 416 OFFCURVE",
"228 416 CURVE",
"156 416 LINE"
);
},
{
closed = 1;
nodes = (
"224 342 LINE SMOOTH",
"350 342 OFFCURVE",
"435 418 OFFCURVE",
"435 534 CURVE SMOOTH",
"435 652 OFFCURVE",
"347 728 OFFCURVE",
"221 728 CURVE",
"56 728 LINE",
"56 342 LINE"
);
},
{
closed = 1;
nodes = (
"156 326 LINE",
"238 326 LINE SMOOTH",
"303 326 OFFCURVE",
"347 281 OFFCURVE",
"347 209 CURVE SMOOTH",
"347 139 OFFCURVE",
"304 90 OFFCURVE",
"238 90 CURVE SMOOTH",
"156 90 LINE"
);
},
{
closed = 1;
nodes = (
"245 0 LINE SMOOTH",
"366 0 OFFCURVE",
"447 80 OFFCURVE",
"447 201 CURVE SMOOTH",
"447 327 OFFCURVE",
"360 415 OFFCURVE",
"235 415 CURVE",
"56 415 LINE",
"56 0 LINE"
);
}
);
width = 482;
}
);
leftKerningGroup = H;
rightKerningGroup = B;
unicode = 0042;
},
{
glyphname = C;
lastChange = "2016-12-25 11:23:07 +0000";
layers = (
{
layerId = "262880E7-CFE1-4BDA-902E-E24798F3240A";
paths = (
{
closed = 1;
nodes = (
"369 -9 OFFCURVE",
"443 58 OFFCURVE",
"443 158 CURVE SMOOTH",
"443 184 LINE",
"420 184 LINE",
"420 156 LINE SMOOTH",
"420 70 OFFCURVE",
"356 12 OFFCURVE",
"261 12 CURVE SMOOTH",
"164 12 OFFCURVE",
"102 70 OFFCURVE",
"102 156 CURVE SMOOTH",
"102 565 LINE SMOOTH",
"102 651 OFFCURVE",
"164 709 OFFCURVE",
"261 709 CURVE SMOOTH",
"356 709 OFFCURVE",
"420 651 OFFCURVE",
"420 565 CURVE SMOOTH",
"420 536 LINE",
"443 536 LINE",
"443 563 LINE SMOOTH",
"443 663 OFFCURVE",
"369 730 OFFCURVE",
"261 730 CURVE SMOOTH",
"151 730 OFFCURVE",
"80 663 OFFCURVE",
"80 563 CURVE SMOOTH",
"80 158 LINE SMOOTH",
"80 58 OFFCURVE",
"151 -9 OFFCURVE",
"261 -9 CURVE SMOOTH"
);
}
);
width = 493;
},
{
layerId = "4E2227F3-52E4-4048-A8EE-327B486EF0A4";
paths = (
{
closed = 1;
nodes = (
"383 -12 OFFCURVE",
"472 79 OFFCURVE",
"472 217 CURVE SMOOTH",
"472 245 LINE",
"284 245 LINE",
"284 206 LINE SMOOTH",
"284 173 OFFCURVE",
"270 150 OFFCURVE",
"248 150 CURVE SMOOTH",
"227 150 OFFCURVE",
"212 173 OFFCURVE",
"212 206 CURVE SMOOTH",
"212 552 LINE SMOOTH",
"212 585 OFFCURVE",
"227 608 OFFCURVE",
"248 608 CURVE SMOOTH",
"270 608 OFFCURVE",
"284 585 OFFCURVE",
"284 552 CURVE SMOOTH",
"284 512 LINE",
"472 512 LINE",
"472 541 LINE SMOOTH",
"472 679 OFFCURVE",
"383 770 OFFCURVE",
"248 770 CURVE SMOOTH",
"114 770 OFFCURVE",
"24 679 OFFCURVE",
"24 541 CURVE SMOOTH",
"24 217 LINE SMOOTH",
"24 79 OFFCURVE",
"114 -12 OFFCURVE",
"248 -12 CURVE SMOOTH"
);
}
);
width = 487;
},
{
layerId = "0BD25E4B-8A11-4E34-A837-2DA28743BADD";
paths = (
{
closed = 1;
nodes = (
"367 -10 OFFCURVE",
"444 67 OFFCURVE",
"444 184 CURVE SMOOTH",
"444 211 LINE",
"344 211 LINE",
"344 181 LINE SMOOTH",
"344 121 OFFCURVE",
"307 80 OFFCURVE",
"250 80 CURVE SMOOTH",
"193 80 OFFCURVE",
"156 121 OFFCURVE",
"156 181 CURVE SMOOTH",
"156 548 LINE SMOOTH",
"156 608 OFFCURVE",
"193 649 OFFCURVE",
"250 649 CURVE SMOOTH",
"307 649 OFFCURVE",
"344 608 OFFCURVE",
"344 548 CURVE SMOOTH",
"344 517 LINE",
"444 517 LINE",
"444 545 LINE SMOOTH",
"444 662 OFFCURVE",
"367 739 OFFCURVE",
"250 739 CURVE SMOOTH",
"134 739 OFFCURVE",
"56 662 OFFCURVE",
"56 545 CURVE SMOOTH",
"56 184 LINE SMOOTH",
"56 67 OFFCURVE",
"134 -10 OFFCURVE",
"250 -10 CURVE SMOOTH"
);
}
);
width = 479;
}
);
leftKerningGroup = O;
rightKerningGroup = C;
unicode = 0043;
},
{
glyphname = D;
lastChange = "2016-12-25 11:23:07 +0000";
layers = (
{
layerId = "262880E7-CFE1-4BDA-902E-E24798F3240A";
paths = (
{
closed = 1;
nodes = (
"264 0 LINE SMOOTH",
"373 0 OFFCURVE",
"440 70 OFFCURVE",
"440 185 CURVE SMOOTH",
"440 536 LINE SMOOTH",
"440 651 OFFCURVE",
"373 721 OFFCURVE",
"264 721 CURVE SMOOTH",
"90 721 LINE",
"90 0 LINE"
);
},
{
closed = 1;
nodes = (
"112 700 LINE",
"266 700 LINE SMOOTH",
"360 700 OFFCURVE",
"418 638 OFFCURVE",
"418 536 CURVE SMOOTH",
"418 184 LINE SMOOTH",
"418 83 OFFCURVE",
"360 21 OFFCURVE",
"266 21 CURVE SMOOTH",
"112 21 LINE"
);
}
);
width = 510;
},
{
layerId = "4E2227F3-52E4-4048-A8EE-327B486EF0A4";
paths = (
{
closed = 1;
nodes = (
"244 0 LINE SMOOTH",
"380 0 OFFCURVE",
"471 85 OFFCURVE",
"471 214 CURVE SMOOTH",
"471 542 LINE SMOOTH",
"471 671 OFFCURVE",
"380 756 OFFCURVE",
"244 756 CURVE SMOOTH",
"27 756 LINE",
"27 0 LINE"
);
},
{
closed = 1;
nodes = (
"215 586 LINE",
"239 586 LINE SMOOTH",
"265 586 OFFCURVE",
"283 561 OFFCURVE",
"283 521 CURVE",
"283 236 LINE",
"281 197 OFFCURVE",
"263 172 OFFCURVE",
"239 171 CURVE SMOOTH",
"215 170 LINE"
);
}
);
width = 492;
},
{
layerId = "0BD25E4B-8A11-4E34-A837-2DA28743BADD";
paths = (
{
closed = 1;
nodes = (
"252 0 LINE SMOOTH",
"370 0 OFFCURVE",
"446 76 OFFCURVE",
"446 197 CURVE SMOOTH",
"446 531 LINE SMOOTH",
"446 652 OFFCURVE",
"370 728 OFFCURVE",
"252 728 CURVE SMOOTH",
"63 728 LINE",
"63 0 LINE"
);
},
{
closed = 1;
nodes = (
"163 638 LINE",
"250 638 LINE SMOOTH",
"309 638 OFFCURVE",
"346 593 OFFCURVE",
"346 522 CURVE",
"346 206 LINE",
"346 135 OFFCURVE",
"308 90 OFFCURVE",
"250 90 CURVE SMOOTH",
"163 90 LINE"
);
}
);
width = 495;
}
);
leftKerningGroup = H;
rightKerningGroup = B;
unicode = 0044;
},
{
glyphname = E;
lastChange = "2016-12-25 11:23:07 +0000";
layers = (
{
layerId = "262880E7-CFE1-4BDA-902E-E24798F3240A";
paths = (
{
closed = 1;
nodes = (
"438 0 LINE",
"438 21 LINE",
"112 21 LINE",
"112 700 LINE",
"438 700 LINE",
"438 721 LINE",
"90 721 LINE",
"90 0 LINE"
);
},
{
closed = 1;
nodes = (
"338 351 LINE",
"338 372 LINE",
"101 372 LINE",
"101 351 LINE"
);
}
);
width = 478;
},
{
layerId = "4E2227F3-52E4-4048-A8EE-327B486EF0A4";
paths = (
{
closed = 1;
nodes = (
"447 0 LINE",
"447 170 LINE",
"215 170 LINE",
"215 586 LINE",
"447 586 LINE",
"447 756 LINE",
"27 756 LINE",
"27 0 LINE"
);
},
{
closed = 1;
nodes = (
"352 293 LINE",
"352 463 LINE",
"103 463 LINE",
"103 293 LINE"
);
}
);
width = 459;
},
{
layerId = "0BD25E4B-8A11-4E34-A837-2DA28743BADD";
paths = (
{
closed = 1;
nodes = (
"433 0 LINE",
"433 90 LINE",
"163 90 LINE",
"163 638 LINE",
"433 638 LINE",
"433 728 LINE",
"63 728 LINE",
"63 0 LINE"
);
},
{
closed = 1;
nodes = (
"339 319 LINE",
"339 409 LINE",
"104 409 LINE",
"104 319 LINE"
);
}
);
width = 461;
}
);
leftKerningGroup = H;
unicode = 0045;
},
{
glyphname = F;
lastChange = "2016-12-25 11:23:07 +0000";
layers = (
{
layerId = "262880E7-CFE1-4BDA-902E-E24798F3240A";
paths = (
{
closed = 1;
nodes = (
"112 0 LINE",
"112 700 LINE",
"437 700 LINE",
"437 721 LINE",
"90 721 LINE",
"90 0 LINE"
);
},
{
closed = 1;
nodes = (
"337 350 LINE",
"337 372 LINE",
"101 372 LINE",
"101 350 LINE"
);
}
);
width = 467;
},
{
layerId = "4E2227F3-52E4-4048-A8EE-327B486EF0A4";
paths = (
{
closed = 1;
nodes = (
"215 0 LINE",
"215 586 LINE",
"447 586 LINE",
"447 756 LINE",
"27 756 LINE",
"27 0 LINE"
);
},
{
closed = 1;
nodes = (
"352 293 LINE",
"352 463 LINE",
"103 463 LINE",
"103 293 LINE"
);
}
);
width = 456;
},
{
layerId = "0BD25E4B-8A11-4E34-A837-2DA28743BADD";
paths = (
{
closed = 1;
nodes = (
"163 0 LINE",
"163 638 LINE",
"433 638 LINE",
"433 728 LINE",
"63 728 LINE",
"63 0 LINE"
);
},
{
closed = 1;
nodes = (
"339 321 LINE",
"339 411 LINE",
"105 411 LINE",
"105 321 LINE"
);
}
);
width = 454;
}
);
leftKerningGroup = H;
unicode = 0046;
},
{
glyphname = G;
lastChange = "2016-12-25 11:23:07 +0000";
layers = (
{
layerId = "262880E7-CFE1-4BDA-902E-E24798F3240A";
paths = (
{
closed = 1;
nodes = (
"369 -9 OFFCURVE",
"442 58 OFFCURVE",
"442 158 CURVE SMOOTH",
"442 372 LINE",
"270 372 LINE",
"270 351 LINE",
"420 351 LINE",
"420 156 LINE SMOOTH",
"420 70 OFFCURVE",
"356 12 OFFCURVE",
"261 12 CURVE SMOOTH",
"164 12 OFFCURVE",
"102 70 OFFCURVE",
"102 156 CURVE SMOOTH",
"102 565 LINE SMOOTH",
"102 651 OFFCURVE",
"164 709 OFFCURVE",
"261 709 CURVE SMOOTH",
"356 709 OFFCURVE",
"420 651 OFFCURVE",
"420 565 CURVE SMOOTH",
"420 515 LINE",
"442 515 LINE",
"442 563 LINE SMOOTH",
"442 663 OFFCURVE",
"369 730 OFFCURVE",
"261 730 CURVE SMOOTH",
"151 730 OFFCURVE",
"80 663 OFFCURVE",
"80 563 CURVE SMOOTH",
"80 158 LINE SMOOTH",
"80 58 OFFCURVE",
"151 -9 OFFCURVE",
"261 -9 CURVE SMOOTH"
);
}
);
width = 492;
},
{
layerId = "4E2227F3-52E4-4048-A8EE-327B486EF0A4";
paths = (
{
closed = 1;
nodes = (
"379 -12 OFFCURVE",
"468 76 OFFCURVE",
"468 208 CURVE SMOOTH",
"468 413 LINE",
"248 413 LINE",
"248 298 LINE",
"280 298 LINE",
"280 204 LINE SMOOTH",
"280 172 OFFCURVE",
"266 150 OFFCURVE",
"246 150 CURVE SMOOTH",
"226 150 OFFCURVE",
"212 172 OFFCURVE",
"212 204 CURVE SMOOTH",
"212 553 LINE SMOOTH",
"212 585 OFFCURVE",
"226 607 OFFCURVE",
"246 607 CURVE SMOOTH",
"266 607 OFFCURVE",
"280 585 OFFCURVE",
"280 553 CURVE SMOOTH",
"280 471 LINE",
"468 471 LINE",
"468 547 LINE SMOOTH",
"468 680 OFFCURVE",
"379 769 OFFCURVE",
"246 769 CURVE SMOOTH",
"113 769 OFFCURVE",
"24 681 OFFCURVE",
"24 549 CURVE SMOOTH",
"24 208 LINE SMOOTH",
"24 76 OFFCURVE",
"113 -12 OFFCURVE",
"246 -12 CURVE SMOOTH"
);
}
);
width = 483;
},
{
layerId = "0BD25E4B-8A11-4E34-A837-2DA28743BADD";
paths = (
{
closed = 1;
nodes = (
"365 -10 OFFCURVE",
"441 65 OFFCURVE",
"441 179 CURVE SMOOTH",
"441 408 LINE",
"254 408 LINE",
"254 318 LINE",
"341 318 LINE",
"341 180 LINE SMOOTH",
"341 120 OFFCURVE",
"306 80 OFFCURVE",
"249 80 CURVE SMOOTH",
"193 80 OFFCURVE",
"156 120 OFFCURVE",
"156 180 CURVE SMOOTH",
"156 548 LINE SMOOTH",
"156 608 OFFCURVE",
"193 648 OFFCURVE",
"249 648 CURVE SMOOTH",
"306 648 OFFCURVE",
"341 608 OFFCURVE",
"341 548 CURVE SMOOTH",
"341 487 LINE",
"441 487 LINE",
"441 548 LINE SMOOTH",
"441 663 OFFCURVE",
"365 738 OFFCURVE",
"249 738 CURVE SMOOTH",
"133 738 OFFCURVE",
"56 663 OFFCURVE",
"56 549 CURVE SMOOTH",
"56 179 LINE SMOOTH",
"56 65 OFFCURVE",
"133 -10 OFFCURVE",
"249 -10 CURVE SMOOTH"
);
}
);
width = 476;
}
);
leftKerningGroup = O;
rightKerningGroup = G;
unicode = 0047;
},
{
glyphname = H;
lastChange = "2016-12-25 11:23:07 +0000";
layers = (
{
layerId = "262880E7-CFE1-4BDA-902E-E24798F3240A";
paths = (
{
closed = 1;
nodes = (
"440 0 LINE",
"440 721 LINE",
"417 721 LINE",
"417 0 LINE"
);
},
{
closed = 1;
nodes = (
"112 0 LINE",
"112 721 LINE",
"90 721 LINE",
"90 0 LINE"
);
},
{
closed = 1;
nodes = (
"423 350 LINE",
"423 372 LINE",
"107 372 LINE",
"107 350 LINE"
);
}
);
width = 530;
},
{
layerId = "4E2227F3-52E4-4048-A8EE-327B486EF0A4";
paths = (
{
closed = 1;
nodes = (
"461 0 LINE",
"461 756 LINE",
"273 756 LINE",
"273 0 LINE"
);
},
{
closed = 1;
nodes = (
"215 0 LINE",
"215 756 LINE",
"27 756 LINE",
"27 0 LINE"
);
},
{
closed = 1;
nodes = (
"368 293 LINE",
"368 463 LINE",
"123 463 LINE",
"123 293 LINE"
);
}
);
width = 488;
},
{
layerId = "0BD25E4B-8A11-4E34-A837-2DA28743BADD";
paths = (
{
closed = 1;
nodes = (
"441 0 LINE",
"441 728 LINE",
"341 728 LINE",
"341 0 LINE"
);
},
{
closed = 1;
nodes = (
"163 0 LINE",
"163 728 LINE",
"63 728 LINE",
"63 0 LINE"
);
},
{
closed = 1;
nodes = (
"389 321 LINE",
"389 411 LINE",
"117 411 LINE",
"117 321 LINE"
);
}
);
width = 504;
}
);
unicode = 0048;
},
{
glyphname = I;
lastChange = "2016-12-25 11:23:07 +0000";
layers = (
{
layerId = "262880E7-CFE1-4BDA-902E-E24798F3240A";
paths = (
{
closed = 1;
nodes = (
"112 0 LINE",
"112 721 LINE",
"90 721 LINE",
"90 0 LINE"
);
}
);
width = 202;
},
{
layerId = "4E2227F3-52E4-4048-A8EE-327B486EF0A4";
paths = (
{
closed = 1;
nodes = (
"215 0 LINE",
"215 756 LINE",
"27 756 LINE",
"27 0 LINE"
);
}
);
width = 242;
},
{
layerId = "0BD25E4B-8A11-4E34-A837-2DA28743BADD";
paths = (
{
closed = 1;
nodes = (
"163 0 LINE",
"163 728 LINE",
"63 728 LINE",
"63 0 LINE"
);
}
);
width = 226;
}
);
unicode = 0049;
},
{
glyphname = J;
lastChange = "2016-12-25 11:23:07 +0000";
layers = (
{
layerId = "262880E7-CFE1-4BDA-902E-E24798F3240A";
paths = (
{
closed = 1;
nodes = (
"309 -9 OFFCURVE",
"378 58 OFFCURVE",
"378 158 CURVE SMOOTH",
"378 721 LINE",
"356 721 LINE",
"356 156 LINE SMOOTH",
"356 70 OFFCURVE",
"295 12 OFFCURVE",
"204 12 CURVE SMOOTH",
"113 12 OFFCURVE",
"52 70 OFFCURVE",
"52 156 CURVE SMOOTH",
"52 258 LINE",
"30 258 LINE",
"30 158 LINE SMOOTH",
"30 58 OFFCURVE",
"99 -9 OFFCURVE",
"204 -9 CURVE SMOOTH"
);
}
);
width = 468;
},
{
layerId = "4E2227F3-52E4-4048-A8EE-327B486EF0A4";
paths = (
{
closed = 1;
nodes = (
"365 -9 OFFCURVE",
"454 77 OFFCURVE",
"454 206 CURVE SMOOTH",
"454 756 LINE",
"266 756 LINE",
"266 216 LINE SMOOTH",
"266 183 OFFCURVE",
"252 161 OFFCURVE",
"231 161 CURVE SMOOTH",
"211 161 OFFCURVE",
"197 183 OFFCURVE",
"197 216 CURVE SMOOTH",
"197 285 LINE",
"9 285 LINE",
"9 206 LINE SMOOTH",
"9 77 OFFCURVE",
"98 -9 OFFCURVE",
"231 -9 CURVE SMOOTH"
);
}
);
width = 481;
},
{
layerId = "0BD25E4B-8A11-4E34-A837-2DA28743BADD";
paths = (
{
closed = 1;
nodes = (
"328 -9 OFFCURVE",
"402 68 OFFCURVE",
"402 189 CURVE SMOOTH",
"402 728 LINE",
"302 728 LINE",
"302 186 LINE SMOOTH",
"302 122 OFFCURVE",
"267 81 OFFCURVE",
"211 81 CURVE SMOOTH",
"155 81 OFFCURVE",
"120 122 OFFCURVE",
"120 186 CURVE SMOOTH",
"120 266 LINE",
"21 266 LINE",
"21 189 LINE SMOOTH",
"21 68 OFFCURVE",
"95 -9 OFFCURVE",
"211 -9 CURVE SMOOTH"
);
}
);
width = 465;
}
);
leftKerningGroup = J;
rightKerningGroup = U;
unicode = 004A;
},
{
glyphname = K;
lastChange = "2016-12-25 11:23:07 +0000";
layers = (
{
layerId = "262880E7-CFE1-4BDA-902E-E24798F3240A";
paths = (
{
closed = 1;
nodes = (
"112 0 LINE",
"112 283 LINE",
"221 419 LINE",
"453 0 LINE",
"481 0 LINE",
"237 440 LINE",
"460 721 LINE",
"431 721 LINE",
"112 317 LINE",
"112 721 LINE",
"90 721 LINE",
"90 0 LINE"
);
}
);
width = 481;
},
{
layerId = "4E2227F3-52E4-4048-A8EE-327B486EF0A4";
paths = (
{
closed = 1;
nodes = (
"215 0 LINE",
"215 206 LINE",
"243 280 LINE",
"297 -4 LINE",
"495 0 LINE",
"365 427 LINE",
"498 756 LINE",
"300 756 LINE",
"215 470 LINE",
"215 756 LINE",
"27 756 LINE",
"27 0 LINE"
);
}
);
width = 498;
},
{
layerId = "0BD25E4B-8A11-4E34-A837-2DA28743BADD";
paths = (
{
closed = 1;
nodes = (
"163 0 LINE",
"163 243 LINE",
"231 348 LINE",
"374 -2 LINE",
"481 0 LINE",
"297 428 LINE",
"472 728 LINE",
"364 728 LINE",
"163 385 LINE",
"163 728 LINE",
"63 728 LINE",
"63 0 LINE"
);
}
);
width = 481;
}
);
rightKerningGroup = K;
unicode = 004B;
},
{
glyphname = L;
lastChange = "2016-12-25 11:23:07 +0000";
layers = (
{
layerId = "262880E7-CFE1-4BDA-902E-E24798F3240A";
paths = (
{
closed = 1;
nodes = (
"429 0 LINE",
"429 21 LINE",
"112 21 LINE",
"112 721 LINE",
"90 721 LINE",
"90 0 LINE"
);
}
);
width = 449;
},
{
layerId = "4E2227F3-52E4-4048-A8EE-327B486EF0A4";
paths = (
{
closed = 1;
nodes = (
"447 0 LINE",
"447 170 LINE",
"215 170 LINE",
"215 756 LINE",
"27 756 LINE",
"27 0 LINE"
);
}
);
width = 453;
},
{
layerId = "0BD25E4B-8A11-4E34-A837-2DA28743BADD";
paths = (
{
closed = 1;
nodes = (
"429 0 LINE",
"429 90 LINE",
"163 90 LINE",
"163 728 LINE",
"63 728 LINE",
"63 0 LINE"
);
}
);
width = 443;
}
);
rightKerningGroup = L;
unicode = 004C;
},
{
glyphname = M;
lastChange = "2016-12-25 11:23:07 +0000";
layers = (
{
layerId = "262880E7-CFE1-4BDA-902E-E24798F3240A";
paths = (
{
closed = 1;
nodes = (
"102 0 LINE",
"102 672 LINE",
"273 337 LINE",
"445 672 LINE",
"445 0 LINE",
"467 0 LINE",
"467 721 LINE",
"445 721 LINE",
"273 382 LINE",
"102 721 LINE",
"80 721 LINE",
"80 0 LINE"
);
}
);
width = 547;
},
{
layerId = "4E2227F3-52E4-4048-A8EE-327B486EF0A4";
paths = (
{
closed = 1;
nodes = (
"212 0 LINE",
"212 479 LINE",
"270 317 LINE",
"327 476 LINE",
"327 0 LINE",
"515 0 LINE",
"515 756 LINE",
"332 756 LINE",
"270 590 LINE",
"207 756 LINE",
"24 756 LINE",
"24 0 LINE"
);
}
);
width = 539;
},
{
layerId = "0BD25E4B-8A11-4E34-A837-2DA28743BADD";
paths = (
{
closed = 1;
nodes = (
"156 0 LINE",
"156 521 LINE",
"268 292 LINE",
"379 521 LINE",
"379 0 LINE",
"479 0 LINE",
"479 728 LINE",
"381 728 LINE",
"268 478 LINE",
"154 728 LINE",
"56 728 LINE",
"56 0 LINE"
);
}
);
width = 535;
}
);
unicode = 004D;
},
{
glyphname = N;
lastChange = "2016-12-25 11:23:07 +0000";
layers = (
{
layerId = "262880E7-CFE1-4BDA-902E-E24798F3240A";
paths = (
{
closed = 1;
nodes = (
"102 0 LINE",
"102 668 LINE",
"426 0 LINE",
"448 0 LINE",
"448 721 LINE",
"426 721 LINE",
"426 53 LINE",
"102 721 LINE",
"80 721 LINE",
"80 0 LINE"
);
}
);
width = 528;
},
{
layerId = "4E2227F3-52E4-4048-A8EE-327B486EF0A4";
paths = (
{
closed = 1;
nodes = (
"210 0 LINE",
"208 393 LINE",
"290 0 LINE",
"495 0 LINE",
"495 756 LINE",
"309 756 LINE",
"311 364 LINE",
"229 756 LINE",
"24 756 LINE",
"24 0 LINE"
);
}
);
width = 519;
},
{
layerId = "0BD25E4B-8A11-4E34-A837-2DA28743BADD";
paths = (
{
closed = 1;
nodes = (
"156 0 LINE",
"155 485 LINE",
"356 0 LINE",
"455 0 LINE",
"455 728 LINE",
"355 728 LINE",
"355 236 LINE",
"155 728 LINE",
"56 728 LINE",
"56 0 LINE"
);
}
);
width = 511;
}
);
leftKerningGroup = H;
rightKerningGroup = H;
unicode = 004E;
},
{
glyphname = O;
lastChange = "2016-12-25 11:23:07 +0000";
layers = (
{
layerId = "262880E7-CFE1-4BDA-902E-E24798F3240A";
paths = (
{
closed = 1;
nodes = (
"354 -9 OFFCURVE",
"429 58 OFFCURVE",
"429 158 CURVE SMOOTH",
"429 563 LINE SMOOTH",
"429 663 OFFCURVE",
"354 730 OFFCURVE",
"243 730 CURVE SMOOTH",
"133 730 OFFCURVE",
"60 663 OFFCURVE",
"60 563 CURVE SMOOTH",
"60 158 LINE SMOOTH",
"60 58 OFFCURVE",
"133 -9 OFFCURVE",
"243 -9 CURVE SMOOTH"
);
},
{
closed = 1;
nodes = (
"146 12 OFFCURVE",
"82 70 OFFCURVE",
"82 156 CURVE SMOOTH",
"82 565 LINE SMOOTH",
"82 651 OFFCURVE",
"146 709 OFFCURVE",
"243 709 CURVE SMOOTH",
"342 709 OFFCURVE",
"407 651 OFFCURVE",
"407 565 CURVE SMOOTH",
"407 156 LINE SMOOTH",
"407 70 OFFCURVE",
"342 12 OFFCURVE",
"243 12 CURVE SMOOTH"
);
}
);
width = 489;
},
{
layerId = "4E2227F3-52E4-4048-A8EE-327B486EF0A4";
paths = (
{
closed = 1;
nodes = (
"387 -13 OFFCURVE",
"480 82 OFFCURVE",
"480 226 CURVE SMOOTH",
"480 530 LINE SMOOTH",
"480 674 OFFCURVE",
"387 769 OFFCURVE",
"249 769 CURVE SMOOTH",
"111 769 OFFCURVE",
"18 674 OFFCURVE",
"18 530 CURVE SMOOTH",
"18 226 LINE SMOOTH",
"18 82 OFFCURVE",
"111 -13 OFFCURVE",
"249 -13 CURVE SMOOTH"
);
},
{
closed = 1;
nodes = (
"223 149 OFFCURVE",
"206 179 OFFCURVE",
"206 215 CURVE SMOOTH",
"206 541 LINE SMOOTH",
"206 577 OFFCURVE",
"223 607 OFFCURVE",
"249 607 CURVE SMOOTH",
"275 607 OFFCURVE",
"292 577 OFFCURVE",
"292 541 CURVE SMOOTH",
"292 215 LINE SMOOTH",
"292 179 OFFCURVE",
"275 149 OFFCURVE",
"249 149 CURVE SMOOTH"
);
}
);
width = 498;
},
{
layerId = "0BD25E4B-8A11-4E34-A837-2DA28743BADD";
paths = (
{
closed = 1;
nodes = (
"364 -10 OFFCURVE",
"445 68 OFFCURVE",
"445 188 CURVE SMOOTH",
"445 540 LINE SMOOTH",
"445 660 OFFCURVE",
"364 738 OFFCURVE",
"243 738 CURVE SMOOTH",
"123 738 OFFCURVE",
"42 660 OFFCURVE",
"42 540 CURVE SMOOTH",
"42 188 LINE SMOOTH",
"42 68 OFFCURVE",
"123 -10 OFFCURVE",
"243 -10 CURVE SMOOTH"
);
},
{
closed = 1;
nodes = (
"182 80 OFFCURVE",
"142 123 OFFCURVE",
"142 185 CURVE SMOOTH",
"142 543 LINE SMOOTH",
"142 605 OFFCURVE",
"182 648 OFFCURVE",
"242 648 CURVE SMOOTH",
"303 648 OFFCURVE",
"343 605 OFFCURVE",
"343 543 CURVE SMOOTH",
"343 185 LINE SMOOTH",
"343 123 OFFCURVE",
"303 80 OFFCURVE",
"242 80 CURVE SMOOTH"
);
}
);
width = 487;
}
);
leftKerningGroup = C;
rightKerningGroup = O;
unicode = 004F;
},
{
glyphname = P;
lastChange = "2016-12-25 11:23:07 +0000";
layers = (
{
layerId = "262880E7-CFE1-4BDA-902E-E24798F3240A";
paths = (
{
closed = 1;
nodes = (
"103 0 LINE",
"103 701 LINE",
"274 701 LINE SMOOTH",
"358 701 OFFCURVE",
"414 635 OFFCURVE",
"414 536 CURVE SMOOTH",
"414 437 OFFCURVE",
"358 371 OFFCURVE",
"274 371 CURVE SMOOTH",
"98 371 LINE",
"98 351 LINE",
"272 351 LINE SMOOTH",
"370 351 OFFCURVE",
"435 424 OFFCURVE",
"435 536 CURVE SMOOTH",
"435 648 OFFCURVE",
"370 723 OFFCURVE",
"272 723 CURVE SMOOTH",
"80 723 LINE",
"80 0 LINE"
);
}
);
width = 495;
},
{
layerId = "4E2227F3-52E4-4048-A8EE-327B486EF0A4";
paths = (
{
closed = 1;
nodes = (
"212 0 LINE",
"212 586 LINE",
"238 586 LINE SMOOTH",
"265 586 OFFCURVE",
"285 559 OFFCURVE",
"285 518 CURVE SMOOTH",
"285 472 OFFCURVE",
"265 440 OFFCURVE",
"238 440 CURVE SMOOTH",
"196 440 LINE",
"196 275 LINE",
"270 275 LINE SMOOTH",
"392 275 OFFCURVE",
"473 373 OFFCURVE",
"473 518 CURVE SMOOTH",
"473 661 OFFCURVE",
"388 756 OFFCURVE",
"260 756 CURVE SMOOTH",
"24 756 LINE",
"24 0 LINE"
);
}
);
width = 491;
},
{
layerId = "0BD25E4B-8A11-4E34-A837-2DA28743BADD";
paths = (
{
closed = 1;
nodes = (
"156 0 LINE",
"156 639 LINE",
"254 639 LINE SMOOTH",
"310 639 OFFCURVE",
"347 592 OFFCURVE",
"347 520 CURVE SMOOTH",
"347 448 OFFCURVE",
"310 398 OFFCURVE",
"254 398 CURVE SMOOTH",
"146 398 LINE",
"146 308 LINE",
"268 308 LINE SMOOTH",
"375 308 OFFCURVE",
"447 394 OFFCURVE",
"447 520 CURVE SMOOTH",
"447 645 OFFCURVE",
"373 729 OFFCURVE",
"264 729 CURVE SMOOTH",
"56 729 LINE",
"56 0 LINE"
);
}
);
width = 489;
}
);
leftKerningGroup = H;
unicode = 0050;
},
{
glyphname = Q;
lastChange = "2016-12-25 11:23:07 +0000";
layers = (
{
layerId = "262880E7-CFE1-4BDA-902E-E24798F3240A";
paths = (
{
closed = 1;
nodes = (
"461 -43 LINE",
"219 11 LINE",
"214 -8 LINE",
"456 -68 LINE"
);
},
{
closed = 1;
nodes = (
"143 12 OFFCURVE",
"82 70 OFFCURVE",
"82 156 CURVE SMOOTH",
"82 565 LINE SMOOTH",
"82 651 OFFCURVE",
"143 709 OFFCURVE",
"236 709 CURVE SMOOTH",
"329 709 OFFCURVE",
"390 651 OFFCURVE",
"390 565 CURVE SMOOTH",
"390 156 LINE SMOOTH",
"390 70 OFFCURVE",
"329 12 OFFCURVE",
"236 12 CURVE SMOOTH"
);
},
{
closed = 1;
nodes = (
"342 -9 OFFCURVE",
"412 58 OFFCURVE",
"412 158 CURVE SMOOTH",
"412 563 LINE SMOOTH",
"412 663 OFFCURVE",
"342 730 OFFCURVE",
"236 730 CURVE SMOOTH",
"130 730 OFFCURVE",
"60 663 OFFCURVE",
"60 563 CURVE SMOOTH",
"60 158 LINE SMOOTH",
"60 58 OFFCURVE",
"130 -9 OFFCURVE",
"236 -9 CURVE SMOOTH"
);
}
);
width = 489;
},
{
layerId = "4E2227F3-52E4-4048-A8EE-327B486EF0A4";
paths = (
{
closed = 1;
nodes = (
"502 75 LINE",
"210 102 LINE",
"164 2 LINE",
"502 -104 LINE"
);
},
{
closed = 1;
nodes = (
"222 161 OFFCURVE",
"206 186 OFFCURVE",
"206 225 CURVE SMOOTH",
"206 531 LINE SMOOTH",
"206 570 OFFCURVE",
"222 595 OFFCURVE",
"246 595 CURVE SMOOTH",
"271 595 OFFCURVE",
"286 570 OFFCURVE",
"286 531 CURVE SMOOTH",
"286 225 LINE SMOOTH",
"286 186 OFFCURVE",
"271 161 OFFCURVE",
"246 161 CURVE SMOOTH"
);
},
{
closed = 1;
nodes = (
"384 -9 OFFCURVE",
"474 85 OFFCURVE",
"474 227 CURVE SMOOTH",
"474 529 LINE SMOOTH",
"474 671 OFFCURVE",
"384 765 OFFCURVE",
"246 765 CURVE SMOOTH",
"109 765 OFFCURVE",
"18 671 OFFCURVE",
"18 529 CURVE SMOOTH",
"18 227 LINE SMOOTH",
"18 85 OFFCURVE",
"109 -9 OFFCURVE",
"246 -9 CURVE SMOOTH"
);
}
);
width = 498;
},
{
layerId = "0BD25E4B-8A11-4E34-A837-2DA28743BADD";
paths = (
{
closed = 1;
nodes = (
"476 44 LINE",
"241 62 LINE",
"212 -7 LINE",
"466 -47 LINE"
);
},
{
closed = 1;
nodes = (
"181 81 OFFCURVE",
"142 123 OFFCURVE",
"142 187 CURVE SMOOTH",
"142 541 LINE SMOOTH",
"142 605 OFFCURVE",
"181 647 OFFCURVE",
"237 647 CURVE SMOOTH",
"295 647 OFFCURVE",
"333 605 OFFCURVE",
"333 541 CURVE SMOOTH",
"333 187 LINE SMOOTH",
"333 123 OFFCURVE",
"295 81 OFFCURVE",
"237 81 CURVE SMOOTH"
);
},
{
closed = 1;
nodes = (
"354 -9 OFFCURVE",
"433 70 OFFCURVE",
"433 189 CURVE SMOOTH",
"433 539 LINE SMOOTH",
"433 658 OFFCURVE",
"354 737 OFFCURVE",
"237 737 CURVE SMOOTH",
"121 737 OFFCURVE",
"42 658 OFFCURVE",
"42 539 CURVE SMOOTH",
"42 189 LINE SMOOTH",
"42 70 OFFCURVE",
"121 -9 OFFCURVE",
"237 -9 CURVE SMOOTH"
);
}
);
width = 487;
}
);
leftKerningGroup = C;
unicode = 0051;
},
{
glyphname = R;
lastChange = "2016-12-25 11:23:07 +0000";
layers = (
{
layerId = "262880E7-CFE1-4BDA-902E-E24798F3240A";
paths = (
{
closed = 1;
nodes = (
"103 0 LINE",
"103 701 LINE",
"278 701 LINE SMOOTH",
"362 701 OFFCURVE",
"417 635 OFFCURVE",
"417 536 CURVE SMOOTH",
"417 437 OFFCURVE",
"362 371 OFFCURVE",
"278 371 CURVE SMOOTH",
"98 371 LINE",
"98 351 LINE",
"276 351 LINE SMOOTH",
"374 351 OFFCURVE",
"439 424 OFFCURVE",
"439 536 CURVE SMOOTH",
"439 648 OFFCURVE",
"374 723 OFFCURVE",
"276 723 CURVE SMOOTH",
"80 723 LINE",
"80 0 LINE"
);
},
{
closed = 1;
nodes = (
"448 0 LINE",
"318 360 LINE",
"300 351 LINE",
"426 0 LINE"
);
}
);
width = 488;
},
{
layerId = "4E2227F3-52E4-4048-A8EE-327B486EF0A4";
paths = (
{
closed = 1;
nodes = (
"212 0 LINE",
"212 586 LINE",
"249 586 LINE SMOOTH",
"278 586 OFFCURVE",
"297 557 OFFCURVE",
"297 511 CURVE SMOOTH",
"297 465 OFFCURVE",
"278 435 OFFCURVE",
"249 435 CURVE SMOOTH",
"196 435 LINE",
"196 271 LINE",
"283 271 LINE SMOOTH",
"404 271 OFFCURVE",
"485 369 OFFCURVE",
"485 516 CURVE SMOOTH",
"485 661 OFFCURVE",
"400 756 OFFCURVE",
"273 756 CURVE SMOOTH",
"24 756 LINE",
"24 0 LINE"
);
},
{
closed = 1;
nodes = (
"492 0 LINE",
"386 363 LINE",
"208 362 LINE",
"298 0 LINE"
);
}
);
width = 504;
},
{
layerId = "0BD25E4B-8A11-4E34-A837-2DA28743BADD";
paths = (
{
closed = 1;
nodes = (
"156 0 LINE",
"156 638 LINE",
"256 638 LINE SMOOTH",
"311 638 OFFCURVE",
"348 591 OFFCURVE",
"348 517 CURVE SMOOTH",
"348 442 OFFCURVE",
"311 393 OFFCURVE",
"256 393 CURVE SMOOTH",
"146 393 LINE",
"146 303 LINE",
"270 303 LINE SMOOTH",
"377 303 OFFCURVE",
"448 390 OFFCURVE",
"448 520 CURVE SMOOTH",
"448 645 OFFCURVE",
"375 729 OFFCURVE",
"266 729 CURVE SMOOTH",
"56 729 LINE",
"56 0 LINE"
);
},
{
closed = 1;
nodes = (
"455 0 LINE",
"338 357 LINE",
"245 352 LINE",
"353 0 LINE"
);
}
);
width = 483;
}
);
rightKerningGroup = R;
unicode = 0052;
},
{
glyphname = S;
lastChange = "2016-12-25 11:23:07 +0000";
layers = (
{
layerId = "262880E7-CFE1-4BDA-902E-E24798F3240A";
paths = (
{
closed = 1;
nodes = (
"353 -9 OFFCURVE",
"422 50 OFFCURVE",
"422 153 CURVE SMOOTH",
"422 261 OFFCURVE",
"330 316 OFFCURVE",
"242 370 CURVE SMOOTH",
"157 422 OFFCURVE",
"72 471 OFFCURVE",
"72 567 CURVE SMOOTH",
"72 657 OFFCURVE",
"131 709 OFFCURVE",
"232 709 CURVE SMOOTH",
"334 709 OFFCURVE",
"394 656 OFFCURVE",
"394 565 CURVE SMOOTH",
"394 515 LINE",
"416 515 LINE",
"416 566 LINE SMOOTH",
"416 670 OFFCURVE",
"348 730 OFFCURVE",
"232 730 CURVE SMOOTH",
"117 730 OFFCURVE",
"50 671 OFFCURVE",
"50 569 CURVE SMOOTH",
"50 462 OFFCURVE",
"140 407 OFFCURVE",
"227 354 CURVE SMOOTH",
"312 302 OFFCURVE",
"400 250 OFFCURVE",
"400 153 CURVE SMOOTH",
"400 64 OFFCURVE",
"338 12 OFFCURVE",
"233 12 CURVE SMOOTH",
"131 12 OFFCURVE",
"72 64 OFFCURVE",
"72 155 CURVE SMOOTH",
"72 216 LINE",
"52 216 LINE",
"52 154 LINE SMOOTH",
"52 51 OFFCURVE",
"119 -9 OFFCURVE",
"235 -9 CURVE SMOOTH"
);
}
);
width = 472;
},
{
layerId = "4E2227F3-52E4-4048-A8EE-327B486EF0A4";
paths = (
{
closed = 1;
nodes = (
"356 -9 OFFCURVE",
"442 74 OFFCURVE",
"442 199 CURVE SMOOTH",
"442 307 OFFCURVE",
"381 362 OFFCURVE",
"279 441 CURVE SMOOTH",
"215 490 OFFCURVE",
"200 506 OFFCURVE",
"200 544 CURVE SMOOTH",
"200 576 OFFCURVE",
"210 595 OFFCURVE",
"226 595 CURVE SMOOTH",
"242 595 OFFCURVE",
"253 576 OFFCURVE",
"253 548 CURVE SMOOTH",
"253 530 LINE",
"438 530 LINE",
"438 553 LINE SMOOTH",
"438 680 OFFCURVE",
"354 765 OFFCURVE",
"227 765 CURVE SMOOTH",
"99 765 OFFCURVE",
"15 679 OFFCURVE",
"15 554 CURVE SMOOTH",
"15 422 OFFCURVE",
"105 354 OFFCURVE",
"177 300 CURVE SMOOTH",
"246 248 OFFCURVE",
"257 235 OFFCURVE",
"257 205 CURVE SMOOTH",
"257 179 OFFCURVE",
"246 161 OFFCURVE",
"232 161 CURVE SMOOTH",
"216 161 OFFCURVE",
"205 180 OFFCURVE",
"205 210 CURVE SMOOTH",
"205 228 LINE",
"20 228 LINE",
"20 192 LINE SMOOTH",
"20 74 OFFCURVE",
"102 -9 OFFCURVE",
"230 -9 CURVE SMOOTH"
);
}
);
width = 457;
},
{
layerId = "0BD25E4B-8A11-4E34-A837-2DA28743BADD";
paths = (
{
closed = 1;
nodes = (
"346 -9 OFFCURVE",
"421 61 OFFCURVE",
"421 173 CURVE SMOOTH",
"421 279 OFFCURVE",
"345 336 OFFCURVE",
"253 400 CURVE SMOOTH",
"182 450 OFFCURVE",
"133 481 OFFCURVE",
"133 548 CURVE SMOOTH",
"133 611 OFFCURVE",
"167 647 OFFCURVE",
"224 647 CURVE SMOOTH",
"282 647 OFFCURVE",
"315 610 OFFCURVE",
"315 550 CURVE SMOOTH",
"315 516 LINE",
"413 516 LINE",
"413 553 LINE SMOOTH",
"413 665 OFFCURVE",
"342 737 OFFCURVE",
"224 737 CURVE SMOOTH",
"108 737 OFFCURVE",
"35 660 OFFCURVE",
"35 549 CURVE SMOOTH",
"35 431 OFFCURVE",
"122 375 OFFCURVE",
"198 322 CURVE SMOOTH",
"272 270 OFFCURVE",
"321 240 OFFCURVE",
"321 176 CURVE SMOOTH",
"321 117 OFFCURVE",
"288 81 OFFCURVE",
"229 81 CURVE SMOOTH",
"172 81 OFFCURVE",
"137 117 OFFCURVE",
"137 183 CURVE SMOOTH",
"137 218 LINE",
"37 218 LINE",
"37 170 LINE SMOOTH",
"37 62 OFFCURVE",
"113 -9 OFFCURVE",
"229 -9 CURVE SMOOTH"
);
}
);
width = 456;
}
);
leftKerningGroup = S;
rightKerningGroup = S;
unicode = 0053;
},
{
glyphname = T;
lastChange = "2016-12-25 11:23:07 +0000";
layers = (
{
layerId = "262880E7-CFE1-4BDA-902E-E24798F3240A";
paths = (
{
closed = 1;
nodes = (
"238 0 LINE",
"238 710 LINE",
"216 710 LINE",
"216 0 LINE"
);
},
{
closed = 1;
nodes = (
"424 700 LINE",
"424 721 LINE",
"40 721 LINE",
"40 700 LINE"
);
}
);
width = 444;
},
{
layerId = "4E2227F3-52E4-4048-A8EE-327B486EF0A4";
paths = (
{
closed = 1;
nodes = (
"330 0 LINE",
"330 744 LINE",
"142 744 LINE",
"142 0 LINE"
);
},
{
closed = 1;
nodes = (
"463 586 LINE",
"463 756 LINE",
"12 756 LINE",
"12 586 LINE"
);
}
);
width = 469;
},
{
layerId = "0BD25E4B-8A11-4E34-A837-2DA28743BADD";
paths = (
{
closed = 1;
nodes = (
"275 0 LINE",
"275 717 LINE",
"175 717 LINE",
"175 0 LINE"
);
},
{
closed = 1;
nodes = (
"429 638 LINE",
"429 728 LINE",
"28 728 LINE",
"28 638 LINE"
);
}
);
width = 443;
}
);
leftKerningGroup = T;
rightKerningGroup = T;
unicode = 0054;
},
{
glyphname = U;
lastChange = "2016-12-25 11:23:07 +0000";
layers = (
{
layerId = "262880E7-CFE1-4BDA-902E-E24798F3240A";
paths = (
{
closed = 1;
nodes = (
"366 -9 OFFCURVE",
"441 61 OFFCURVE",
"441 165 CURVE SMOOTH",
"441 721 LINE",
"420 721 LINE",
"420 160 LINE SMOOTH",
"420 72 OFFCURVE",
"353 12 OFFCURVE",
"255 12 CURVE SMOOTH",
"157 12 OFFCURVE",
"92 72 OFFCURVE",
"92 160 CURVE SMOOTH",
"92 721 LINE",
"70 721 LINE",
"70 165 LINE SMOOTH",
"70 61 OFFCURVE",
"144 -9 OFFCURVE",
"255 -9 CURVE SMOOTH"
);
}
);
width = 511;
},
{
layerId = "4E2227F3-52E4-4048-A8EE-327B486EF0A4";
paths = (
{
closed = 1;
nodes = (
"376 -9 OFFCURVE",
"465 82 OFFCURVE",
"465 220 CURVE SMOOTH",
"465 756 LINE",
"277 756 LINE",
"277 220 LINE SMOOTH",
"277 184 OFFCURVE",
"263 161 OFFCURVE",
"243 161 CURVE SMOOTH",
"223 161 OFFCURVE",
"209 184 OFFCURVE",
"209 220 CURVE SMOOTH",
"209 756 LINE",
"21 756 LINE",
"21 220 LINE SMOOTH",
"21 82 OFFCURVE",
"110 -9 OFFCURVE",
"243 -9 CURVE SMOOTH"
);
}
);
width = 486;
},
{
layerId = "0BD25E4B-8A11-4E34-A837-2DA28743BADD";
paths = (
{
closed = 1;
nodes = (
"364 -9 OFFCURVE",
"443 70 OFFCURVE",
"443 188 CURVE SMOOTH",
"443 728 LINE",
"343 728 LINE",
"343 186 LINE SMOOTH",
"343 123 OFFCURVE",
"304 81 OFFCURVE",
"246 81 CURVE SMOOTH",
"189 81 OFFCURVE",
"149 123 OFFCURVE",
"149 186 CURVE SMOOTH",
"149 728 LINE",
"49 728 LINE",
"49 188 LINE SMOOTH",
"49 70 OFFCURVE",
"129 -9 OFFCURVE",
"246 -9 CURVE SMOOTH"
);
}
);
width = 492;
}
);
rightKerningGroup = U;
unicode = 0055;
},
{
glyphname = V;
lastChange = "2016-12-25 11:23:07 +0000";
layers = (
{
layerId = "262880E7-CFE1-4BDA-902E-E24798F3240A";
paths = (
{
closed = 1;
nodes = (
"247 0 LINE",
"442 721 LINE",
"419 721 LINE",
"236 42 LINE",
"52 721 LINE",
"30 721 LINE",
"225 0 LINE"
);
}
);
width = 472;
},
{
layerId = "4E2227F3-52E4-4048-A8EE-327B486EF0A4";
paths = (
{
closed = 1;
nodes = (
"364 0 LINE",
"517 756 LINE",
"319 756 LINE",
"268 305 LINE",
"212 756 LINE",
"9 756 LINE",
"161 0 LINE"
);
}
);
width = 526;
},
{
layerId = "0BD25E4B-8A11-4E34-A837-2DA28743BADD";
paths = (
{
closed = 1;
nodes = (
"302 0 LINE",
"478 728 LINE",
"373 728 LINE",
"251 165 LINE",
"127 728 LINE",
"21 728 LINE",
"196 0 LINE"
);
}
);
width = 499;
}
);
leftKerningGroup = V;
rightKerningGroup = V;
unicode = 0056;
},
{
glyphname = W;
lastChange = "2016-12-25 11:23:07 +0000";
layers = (
{
layerId = "262880E7-CFE1-4BDA-902E-E24798F3240A";
paths = (
{
closed = 1;
nodes = (
"202 0 LINE",
"346 678 LINE",
"486 0 LINE",
"507 0 LINE",
"660 721 LINE",
"638 721 LINE",
"498 40 LINE",
"354 721 LINE",
"336 721 LINE",
"192 40 LINE",
"52 721 LINE",
"30 721 LINE",
"180 0 LINE"
);
}
);
width = 690;
},
{
layerId = "4E2227F3-52E4-4048-A8EE-327B486EF0A4";
paths = (
{
closed = 1;
nodes = (
"314 0 LINE",
"351 418 LINE",
"397 0 LINE",
"561 0 LINE",
"693 756 LINE",
"500 756 LINE",
"480 352 LINE",
"431 756 LINE",
"266 756 LINE",
"232 352 LINE",
"207 756 LINE",
"9 756 LINE",
"149 0 LINE"
);
}
);
width = 702;
},
{
layerId = "0BD25E4B-8A11-4E34-A837-2DA28743BADD";
paths = (
{
closed = 1;
nodes = (
"253 0 LINE",
"346 547 LINE",
"440 0 LINE",
"527 0 LINE",
"670 728 LINE",
"568 728 LINE",
"485 186 LINE",
"388 728 LINE",
"300 728 LINE",
"210 186 LINE",
"125 728 LINE",
"21 728 LINE",
"165 0 LINE"
);
}
);
width = 691;
}
);
leftKerningGroup = V;
rightKerningGroup = V;
unicode = 0057;
},
{
glyphname = X;
lastChange = "2016-12-25 11:23:07 +0000";
layers = (
{
layerId = "262880E7-CFE1-4BDA-902E-E24798F3240A";
paths = (
{
closed = 1;
nodes = (
"55 0 LINE",
"224 341 LINE",
"393 0 LINE",
"418 0 LINE",
"235 359 LINE",
"418 721 LINE",
"393 721 LINE",
"224 379 LINE",
"55 721 LINE",
"30 721 LINE",
"213 361 LINE",
"30 0 LINE"
);
}
);
width = 448;
},
{
layerId = "4E2227F3-52E4-4048-A8EE-327B486EF0A4";
paths = (
{
closed = 1;
nodes = (
"200 0 LINE",
"247 190 LINE",
"293 0 LINE",
"484 0 LINE",
"346 378 LINE",
"484 756 LINE",
"292 756 LINE",
"247 565 LINE",
"201 756 LINE",
"9 756 LINE",
"147 378 LINE",
"9 0 LINE"
);
}
);
width = 493;
},
{
layerId = "0BD25E4B-8A11-4E34-A837-2DA28743BADD";
paths = (
{
closed = 1;
nodes = (
"123 0 LINE",
"235 266 LINE",
"347 0 LINE",
"449 0 LINE",
"287 363 LINE",
"449 728 LINE",
"346 728 LINE",
"235 461 LINE",
"124 728 LINE",
"21 728 LINE",
"183 364 LINE",
"21 0 LINE"
);
}
);
width = 470;
}
);
rightKerningGroup = X;
unicode = 0058;
},
{
glyphname = Y;
lastChange = "2016-12-25 11:23:07 +0000";
layers = (
{
layerId = "262880E7-CFE1-4BDA-902E-E24798F3240A";
paths = (
{
closed = 1;
nodes = (
"232 0 LINE",
"232 349 LINE",
"410 721 LINE",
"388 721 LINE",
"221 368 LINE",
"52 721 LINE",
"30 721 LINE",
"210 349 LINE",
"210 0 LINE"
);
}
);
width = 440;
},
{
layerId = "4E2227F3-52E4-4048-A8EE-327B486EF0A4";
paths = (
{
closed = 1;
nodes = (
"340 2 LINE",
"340 281 LINE",
"484 756 LINE",
"286 756 LINE",
"247 481 LINE",
"207 756 LINE",
"9 756 LINE",
"152 281 LINE",
"152 2 LINE"
);
}
);
width = 493;
},
{
layerId = "0BD25E4B-8A11-4E34-A837-2DA28743BADD";
paths = (
{
closed = 1;
nodes = (
"285 1 LINE",
"285 322 LINE",
"448 728 LINE",
"341 728 LINE",
"235 425 LINE",
"129 728 LINE",
"21 728 LINE",
"185 322 LINE",
"185 1 LINE"
);
}
);
width = 469;
}
);
leftKerningGroup = Y;
unicode = 0059;
},
{
glyphname = Z;
lastChange = "2016-12-25 11:23:07 +0000";
layers = (
{
layerId = "262880E7-CFE1-4BDA-902E-E24798F3240A";
paths = (
{
closed = 1;
nodes = (
"384 0 LINE",
"384 21 LINE",
"55 21 LINE",
"384 700 LINE",
"384 721 LINE",
"30 721 LINE",
"30 700 LINE",
"360 700 LINE",
"30 21 LINE",
"30 0 LINE"
);
}
);
width = 424;
},
{
layerId = "4E2227F3-52E4-4048-A8EE-327B486EF0A4";
paths = (
{
closed = 1;
nodes = (
"403 0 LINE",
"403 170 LINE",
"205 170 LINE",
"403 586 LINE",
"403 756 LINE",
"9 756 LINE",
"9 586 LINE",
"205 586 LINE",
"9 170 LINE",
"9 0 LINE"
);
}
);
width = 415;
},
{
layerId = "0BD25E4B-8A11-4E34-A837-2DA28743BADD";
paths = (
{
closed = 1;
nodes = (
"381 0 LINE",
"381 90 LINE",
"125 90 LINE",
"381 638 LINE",
"381 728 LINE",
"21 728 LINE",
"21 638 LINE",
"275 638 LINE",
"21 90 LINE",
"21 0 LINE"
);
}
);
width = 409;
}
);
leftKerningGroup = Z;
rightKerningGroup = Z;
unicode = 005A;
},
{
glyphname = a;
lastChange = "2016-12-25 11:23:07 +0000";
layers = (
{
layerId = "262880E7-CFE1-4BDA-902E-E24798F3240A";
paths = (
{
closed = 1;
nodes = (
"403 0 LINE",
"403 352 LINE SMOOTH",
"403 460 OFFCURVE",
"350 523 OFFCURVE",
"248 523 CURVE SMOOTH",
"150 523 OFFCURVE",
"86 464 OFFCURVE",
"86 363 CURVE SMOOTH",
"86 362 LINE",
"108 362 LINE",
"108 366 LINE SMOOTH",
"108 452 OFFCURVE",
"164 502 OFFCURVE",
"248 502 CURVE SMOOTH",
"336 502 OFFCURVE",
"381 447 OFFCURVE",
"381 355 CURVE SMOOTH",
"381 0 LINE"
);
},
{
closed = 1;
nodes = (
"310 -8 OFFCURVE",
"398 38 OFFCURVE",
"398 146 CURVE",
"398 285 LINE",
"255 285 LINE",
"125 285 OFFCURVE",
"60 227 OFFCURVE",
"60 123 CURVE SMOOTH",
"60 13 OFFCURVE",
"143 -8 OFFCURVE",
"211 -8 CURVE SMOOTH"
);
},
{
closed = 1;
nodes = (
"142 13 OFFCURVE",
"82 41 OFFCURVE",
"82 124 CURVE SMOOTH",
"82 213 OFFCURVE",
"145 264 OFFCURVE",
"255 264 CURVE",
"381 264 LINE",
"381 146 LINE SMOOTH",
"381 53 OFFCURVE",
"298 13 OFFCURVE",
"213 13 CURVE SMOOTH"
);
}
);
width = 483;
},
{
layerId = "4E2227F3-52E4-4048-A8EE-327B486EF0A4";
paths = (
{
closed = 1;
nodes = (
"449 0 LINE",
"449 386 LINE SMOOTH",
"449 496 OFFCURVE",
"362 568 OFFCURVE",
"232 568 CURVE SMOOTH",
"105 568 OFFCURVE",
"18 500 OFFCURVE",
"18 395 CURVE SMOOTH",
"18 365 LINE",
"206 359 LINE",
"206 365 LINE SMOOTH",
"206 390 OFFCURVE",
"217 407 OFFCURVE",
"232 407 CURVE SMOOTH",
"249 407 OFFCURVE",
"261 390 OFFCURVE",
"261 364 CURVE SMOOTH",
"261 0 LINE"
);
},
{
closed = 1;
nodes = (
"250 -8 OFFCURVE",
"350 90 OFFCURVE",
"350 207 CURVE",
"350 336 LINE",
"221 336 LINE",
"95 336 OFFCURVE",
"12 314 OFFCURVE",
"12 161 CURVE SMOOTH",
"12 10 OFFCURVE",
"86 -10 OFFCURVE",
"155 -9 CURVE SMOOTH"
);
},
{
closed = 1;
nodes = (
"216 127 OFFCURVE",
"204 139 OFFCURVE",
"204 164 CURVE SMOOTH",
"204 188 OFFCURVE",
"216 206 OFFCURVE",
"235 206 CURVE",
"261 206 LINE",
"261 169 LINE SMOOTH",
"261 142 OFFCURVE",
"243 127 OFFCURVE",
"229 127 CURVE SMOOTH"
);
}
);
width = 465;
},
{
layerId = "0BD25E4B-8A11-4E34-A837-2DA28743BADD";
paths = (
{
closed = 1;
nodes = (
"429 0 LINE",
"429 357 LINE SMOOTH",
"429 467 OFFCURVE",
"359 537 OFFCURVE",
"246 537 CURVE SMOOTH",
"133 537 OFFCURVE",
"58 468 OFFCURVE",
"58 359 CURVE SMOOTH",
"58 347 LINE",
"158 347 LINE",
"158 357 LINE SMOOTH",
"158 412 OFFCURVE",
"194 447 OFFCURVE",
"245 447 CURVE SMOOTH",
"298 447 OFFCURVE",
"329 410 OFFCURVE",
"329 351 CURVE SMOOTH",
"329 0 LINE"
);
},
{
closed = 1;
nodes = (
"307 -8 OFFCURVE",
"370 56 OFFCURVE",
"370 167 CURVE",
"370 312 LINE",
"243 312 LINE",
"119 312 OFFCURVE",
"42 264 OFFCURVE",
"42 145 CURVE SMOOTH",
"42 13 OFFCURVE",
"135 -8 OFFCURVE",
"197 -8 CURVE SMOOTH"
);
},
{
closed = 1;
nodes = (
"179 79 OFFCURVE",
"142 99 OFFCURVE",
"142 151 CURVE SMOOTH",
"142 206 OFFCURVE",
"187 233 OFFCURVE",
"270 233 CURVE",
"329 233 LINE",
"329 188 LINE SMOOTH",
"329 115 OFFCURVE",
"264 79 OFFCURVE",
"215 79 CURVE SMOOTH"
);
}
);
width = 485;
}
);
leftKerningGroup = a;
rightKerningGroup = b;
unicode = 0061;
},
{
glyphname = b;
lastChange = "2016-12-25 11:23:07 +0000";
layers = (
{
components = (
{
name = b.bowl;
transform = "{1, 0, 0, 1, 83, 0}";
}
);
layerId = "262880E7-CFE1-4BDA-902E-E24798F3240A";
paths = (
{
closed = 1;
nodes = (
"102 0 LINE",
"102 721 LINE",
"80 721 LINE",
"80 0 LINE"
);
}
);
width = 488;
},
{
components = (
{
name = b.bowl;
transform = "{1, 0, 0, 1, 170, 0}";
}
);
layerId = "4E2227F3-52E4-4048-A8EE-327B486EF0A4";
paths = (
{
closed = 1;
nodes = (
"204 0 LINE",
"204 756 LINE",
"16 756 LINE",
"16 0 LINE"
);
}
);
width = 451;
},
{
components = (
{
name = b.bowl;
transform = "{1, 0, 0, 1, 129, 0}";
}
);
layerId = "0BD25E4B-8A11-4E34-A837-2DA28743BADD";
paths = (
{
closed = 1;
nodes = (
"155 0 LINE",
"155 728 LINE",
"56 728 LINE",
"56 0 LINE"
);
}
);
width = 482;
}
);
leftKerningGroup = b;
rightKerningGroup = n;
unicode = 0062;
},
{
glyphname = c;
lastChange = "2016-12-25 11:23:07 +0000";
layers = (
{
layerId = "262880E7-CFE1-4BDA-902E-E24798F3240A";
paths = (
{
closed = 1;
nodes = (
"338 -8 OFFCURVE",
"405 51 OFFCURVE",
"405 140 CURVE SMOOTH",
"405 153 LINE",
"383 153 LINE",
"383 139 LINE SMOOTH",
"383 63 OFFCURVE",
"326 13 OFFCURVE",
"238 13 CURVE SMOOTH",
"151 13 OFFCURVE",
"92 72 OFFCURVE",
"92 159 CURVE SMOOTH",
"92 355 LINE SMOOTH",
"92 443 OFFCURVE",
"151 502 OFFCURVE",
"238 502 CURVE SMOOTH",
"326 502 OFFCURVE",
"383 452 OFFCURVE",
"383 376 CURVE SMOOTH",
"383 362 LINE",
"405 362 LINE",
"405 375 LINE SMOOTH",
"405 464 OFFCURVE",
"338 523 OFFCURVE",
"238 523 CURVE SMOOTH",
"138 523 OFFCURVE",
"70 455 OFFCURVE",
"70 354 CURVE SMOOTH",
"70 161 LINE SMOOTH",
"70 60 OFFCURVE",
"138 -8 OFFCURVE",
"238 -8 CURVE SMOOTH"
);
}
);
width = 465;
},
{
layerId = "4E2227F3-52E4-4048-A8EE-327B486EF0A4";
paths = (
{
closed = 1;
nodes = (
"363 -8 OFFCURVE",
"439 72 OFFCURVE",
"439 203 CURVE SMOOTH",
"439 224 LINE",
"251 224 LINE",
"251 199 LINE SMOOTH",
"251 170 OFFCURVE",
"243 153 OFFCURVE",
"227 153 CURVE SMOOTH",
"210 153 OFFCURVE",
"202 170 OFFCURVE",
"202 199 CURVE SMOOTH",
"202 361 LINE SMOOTH",
"202 390 OFFCURVE",
"210 407 OFFCURVE",
"227 407 CURVE SMOOTH",
"243 407 OFFCURVE",
"251 390 OFFCURVE",
"251 361 CURVE SMOOTH",
"251 335 LINE",
"439 335 LINE",
"439 357 LINE SMOOTH",
"439 489 OFFCURVE",
"363 569 OFFCURVE",
"227 569 CURVE SMOOTH",
"91 569 OFFCURVE",
"14 489 OFFCURVE",
"14 357 CURVE SMOOTH",
"14 203 LINE SMOOTH",
"14 72 OFFCURVE",
"91 -8 OFFCURVE",
"227 -8 CURVE SMOOTH"
);
}
);
width = 451;
},
{
layerId = "0BD25E4B-8A11-4E34-A837-2DA28743BADD";
paths = (
{
closed = 1;
nodes = (
"354 -8 OFFCURVE",
"426 68 OFFCURVE",
"426 181 CURVE SMOOTH",
"426 187 LINE",
"326 187 LINE",
"326 184 LINE SMOOTH",
"326 125 OFFCURVE",
"292 82 OFFCURVE",
"238 82 CURVE SMOOTH",
"183 82 OFFCURVE",
"149 125 OFFCURVE",
"149 185 CURVE SMOOTH",
"149 346 LINE SMOOTH",
"149 406 OFFCURVE",
"183 449 OFFCURVE",
"238 449 CURVE SMOOTH",
"292 449 OFFCURVE",
"326 406 OFFCURVE",
"326 347 CURVE SMOOTH",
"326 342 LINE",
"426 342 LINE",
"426 350 LINE SMOOTH",
"426 465 OFFCURVE",
"355 539 OFFCURVE",
"239 539 CURVE SMOOTH",
"123 539 OFFCURVE",
"49 465 OFFCURVE",
"49 349 CURVE SMOOTH",
"49 182 LINE SMOOTH",
"49 68 OFFCURVE",
"122 -8 OFFCURVE",
"238 -8 CURVE SMOOTH"
);
}
);
width = 468;
},
{
associatedMasterId = "0BD25E4B-8A11-4E34-A837-2DA28743BADD";
layerId = "BEFEE872-CD19-468C-BA1F-110C849B8F6F";
name = "Dec 25 16, 04:10";
paths = (
{
closed = 1;
nodes = (
"355 -8 OFFCURVE",
"426 61 OFFCURVE",
"426 164 CURVE SMOOTH",
"426 178 LINE",
"327 178 LINE",
"327 162 LINE SMOOTH",
"327 114 OFFCURVE",
"293 82 OFFCURVE",
"238 82 CURVE SMOOTH",
"184 82 OFFCURVE",
"149 118 OFFCURVE",
"149 173 CURVE SMOOTH",
"149 336 LINE SMOOTH",
"149 391 OFFCURVE",
"184 427 OFFCURVE",
"238 427 CURVE SMOOTH",
"293 427 OFFCURVE",
"327 396 OFFCURVE",
"327 347 CURVE SMOOTH",
"327 330 LINE",
"426 330 LINE",
"426 344 LINE SMOOTH",
"426 448 OFFCURVE",
"355 517 OFFCURVE",
"238 517 CURVE SMOOTH",
"121 517 OFFCURVE",
"49 444 OFFCURVE",
"49 333 CURVE SMOOTH",
"49 174 LINE SMOOTH",
"49 64 OFFCURVE",
"121 -8 OFFCURVE",
"238 -8 CURVE SMOOTH"
);
}
);
width = 468;
visible = 1;
}
);
leftKerningGroup = o;
rightKerningGroup = c;
unicode = 0063;
},
{
glyphname = e;
lastChange = "2016-12-25 11:23:07 +0000";
layers = (
{
layerId = "262880E7-CFE1-4BDA-902E-E24798F3240A";
paths = (
{
closed = 1;
nodes = (
"321 -8 OFFCURVE",
"387 40 OFFCURVE",
"403 112 CURVE",
"381 111 LINE",
"365 52 OFFCURVE",
"308 13 OFFCURVE",
"239 13 CURVE SMOOTH",
"151 13 OFFCURVE",
"92 72 OFFCURVE",
"92 159 CURVE SMOOTH",
"92 355 LINE SMOOTH",
"92 443 OFFCURVE",
"151 502 OFFCURVE",
"238 502 CURVE SMOOTH",
"327 502 OFFCURVE",
"385 443 OFFCURVE",
"385 355 CURVE SMOOTH",
"385 273 LINE",
"82 273 LINE",
"82 252 LINE",
"407 252 LINE",
"407 353 LINE SMOOTH",
"407 455 OFFCURVE",
"340 523 OFFCURVE",
"238 523 CURVE SMOOTH",
"138 523 OFFCURVE",
"70 455 OFFCURVE",
"70 354 CURVE SMOOTH",
"70 160 LINE SMOOTH",
"70 60 OFFCURVE",
"138 -8 OFFCURVE",
"239 -8 CURVE SMOOTH"
);
}
);
width = 477;
},
{
layerId = "4E2227F3-52E4-4048-A8EE-327B486EF0A4";
paths = (
{
closed = 1;
nodes = (
"363 -8 OFFCURVE",
"440 65 OFFCURVE",
"439 189 CURVE",
"251 191 LINE",
"250 163 OFFCURVE",
"241 147 OFFCURVE",
"226 147 CURVE SMOOTH",
"210 147 OFFCURVE",
"202 165 OFFCURVE",
"202 198 CURVE SMOOTH",
"202 362 LINE SMOOTH",
"202 392 OFFCURVE",
"210 410 OFFCURVE",
"227 410 CURVE SMOOTH",
"243 410 OFFCURVE",
"251 392 OFFCURVE",
"251 362 CURVE SMOOTH",
"251 336 LINE",
"130 336 LINE",
"130 226 LINE",
"439 226 LINE",
"439 358 LINE SMOOTH",
"439 491 OFFCURVE",
"363 569 OFFCURVE",
"227 569 CURVE SMOOTH",
"91 569 OFFCURVE",
"14 491 OFFCURVE",
"14 358 CURVE SMOOTH",
"14 202 LINE SMOOTH",
"14 69 OFFCURVE",
"90 -8 OFFCURVE",
"226 -8 CURVE SMOOTH"
);
}
);
width = 453;
},
{
layerId = "0BD25E4B-8A11-4E34-A837-2DA28743BADD";
paths = (
{
closed = 1;
nodes = (
"346 -8 OFFCURVE",
"416 55 OFFCURVE",
"424 149 CURVE",
"324 151 LINE",
"316 109 OFFCURVE",
"283 82 OFFCURVE",
"238 82 CURVE SMOOTH",
"183 82 OFFCURVE",
"149 121 OFFCURVE",
"149 179 CURVE SMOOTH",
"149 351 LINE SMOOTH",
"149 409 OFFCURVE",
"183 448 OFFCURVE",
"238 448 CURVE SMOOTH",
"293 448 OFFCURVE",
"326 409 OFFCURVE",
"326 351 CURVE SMOOTH",
"326 310 LINE",
"110 310 LINE",
"110 225 LINE",
"426 225 LINE",
"426 347 LINE SMOOTH",
"426 462 OFFCURVE",
"355 538 OFFCURVE",
"238 538 CURVE SMOOTH",
"121 538 OFFCURVE",
"49 462 OFFCURVE",
"49 347 CURVE SMOOTH",
"49 183 LINE SMOOTH",
"49 68 OFFCURVE",
"120 -8 OFFCURVE",
"238 -8 CURVE SMOOTH"
);
}
);
width = 475;
}
);
leftKerningGroup = o;
rightKerningGroup = o;
unicode = 0065;
},
{
glyphname = f;
lastChange = "2016-12-25 11:23:07 +0000";
layers = (
{
layerId = "262880E7-CFE1-4BDA-902E-E24798F3240A";
paths = (
{
closed = 1;
nodes = (
"122 0 LINE",
"122 566 LINE SMOOTH",
"122 656 OFFCURVE",
"151 710 OFFCURVE",
"269 710 CURVE",
"269 731 LINE",
"138 731 OFFCURVE",
"100 669 OFFCURVE",
"100 566 CURVE SMOOTH",
"100 0 LINE"
);
},
{
closed = 1;
nodes = (
"239 494 LINE",
"239 515 LINE",
"22 515 LINE",
"22 494 LINE"
);
}
);
width = 259;
},
{
layerId = "4E2227F3-52E4-4048-A8EE-327B486EF0A4";
paths = (
{
closed = 1;
nodes = (
"229 0 LINE",
"229 586 LINE",
"229 612 OFFCURVE",
"242 628 OFFCURVE",
"266 630 CURVE",
"266 757 LINE",
"124 764 OFFCURVE",
"41 735 OFFCURVE",
"41 600 CURVE",
"41 0 LINE"
);
},
{
closed = 1;
nodes = (
"287 426 LINE",
"287 560 LINE",
"0 560 LINE",
"0 426 LINE"
);
}
);
width = 291;
},
{
layerId = "0BD25E4B-8A11-4E34-A837-2DA28743BADD";
paths = (
{
closed = 1;
nodes = (
"170 0 LINE",
"170 584 LINE",
"170 644 OFFCURVE",
"214 657 OFFCURVE",
"261 658 CURVE",
"261 734 LINE",
"100 737 OFFCURVE",
"70 691 OFFCURVE",
"70 575 CURVE",
"70 0 LINE"
);
},
{
closed = 1;
nodes = (
"256 437 LINE",
"256 530 LINE",
"12 530 LINE",
"12 437 LINE"
);
}
);
width = 270;
}
);
leftKerningGroup = t;
unicode = 0066;
},
{
glyphname = g;
lastChange = "2016-12-25 11:23:07 +0000";
layers = (
{
components = (
{
name = b.bowl;
transform = "{-1, 0, 0, 1, 405, 0}";
}
);
layerId = "262880E7-CFE1-4BDA-902E-E24798F3240A";
paths = (
{
closed = 1;
nodes = (
"337 -209 OFFCURVE",
"409 -141 OFFCURVE",
"409 0 CURVE SMOOTH",
"409 515 LINE",
"386 515 LINE",
"386 0 LINE SMOOTH",
"386 -127 OFFCURVE",
"322 -188 OFFCURVE",
"205 -184 CURVE",
"205 -205 LINE"
);
}
);
width = 489;
},
{
components = (
{
name = b.bowl;
transform = "{-1, 0, 0, 1, 281, 0}";
}
);
layerId = "4E2227F3-52E4-4048-A8EE-327B486EF0A4";
paths = (
{
closed = 1;
nodes = (
"379 -249 OFFCURVE",
"432 -126 OFFCURVE",
"432 34 CURVE SMOOTH",
"432 560 LINE",
"244 560 LINE",
"244 53 LINE SMOOTH",
"244 -25 OFFCURVE",
"237 -72 OFFCURVE",
"92 -61 CURVE",
"92 -223 LINE"
);
}
);
width = 448;
},
{
components = (
{
name = b.bowl;
transform = "{-1, 0, 0, 1, 353, 0}";
}
);
layerId = "0BD25E4B-8A11-4E34-A837-2DA28743BADD";
paths = (
{
closed = 1;
nodes = (
"363 -225 OFFCURVE",
"426 -133 OFFCURVE",
"426 16 CURVE SMOOTH",
"426 529 LINE",
"326 529 LINE",
"326 25 LINE SMOOTH",
"326 -78 OFFCURVE",
"289 -131 OFFCURVE",
"159 -124 CURVE",
"159 -211 LINE"
);
}
);
width = 482;
}
);
leftKerningGroup = d;
rightKerningGroup = g;
unicode = 0067;
},
{
glyphname = h;
lastChange = "2016-12-25 11:23:07 +0000";
layers = (
{
components = (
{
name = n.curve;
transform = "{1, 0, 0, 1, 84, 0}";
}
);
layerId = "262880E7-CFE1-4BDA-902E-E24798F3240A";
paths = (
{
closed = 1;
nodes = (
"102 0 LINE",
"102 721 LINE",
"80 721 LINE",
"80 0 LINE"
);
}
);
width = 478;
},
{
components = (
{
name = n.curve;
transform = "{1, 0, 0, 1, 168, 0}";
}
);
layerId = "4E2227F3-52E4-4048-A8EE-327B486EF0A4";
paths = (
{
closed = 1;
nodes = (
"204 0 LINE",
"204 756 LINE",
"16 756 LINE",
"16 0 LINE"
);
}
);
width = 450;
},
{
components = (
{
name = n.curve;
transform = "{1, 0, 0, 1, 129, 0}";
}
);
layerId = "0BD25E4B-8A11-4E34-A837-2DA28743BADD";
paths = (
{
closed = 1;
nodes = (
"155 0 LINE",
"155 728 LINE",
"56 728 LINE",
"56 0 LINE"
);
}
);
width = 476;
}
);
leftKerningGroup = b;
rightKerningGroup = n;
unicode = 0068;
},
{
glyphname = i;
lastChange = "2016-12-25 11:23:07 +0000";
layers = (
{
layerId = "262880E7-CFE1-4BDA-902E-E24798F3240A";
paths = (
{
closed = 1;
nodes = (
"112 0 LINE",
"112 515 LINE",
"90 515 LINE",
"90 0 LINE"
);
},
{
closed = 1;
nodes = (
"118 680 OFFCURVE",
"131 694 OFFCURVE",
"131 711 CURVE SMOOTH",
"131 727 OFFCURVE",
"118 740 OFFCURVE",
"101 740 CURVE SMOOTH",
"84 740 OFFCURVE",
"70 727 OFFCURVE",
"70 711 CURVE SMOOTH",
"70 694 OFFCURVE",
"84 680 OFFCURVE",
"101 680 CURVE SMOOTH"
);
}
);
width = 202;
},
{
layerId = "4E2227F3-52E4-4048-A8EE-327B486EF0A4";
paths = (
{
closed = 1;
nodes = (
"206 0 LINE",
"206 560 LINE",
"18 560 LINE",
"18 0 LINE"
);
},
{
closed = 1;
nodes = (
"175 594 OFFCURVE",
"216 637 OFFCURVE",
"216 701 CURVE SMOOTH",
"216 764 OFFCURVE",
"175 807 OFFCURVE",
"112 807 CURVE SMOOTH",
"50 807 OFFCURVE",
"8 764 OFFCURVE",
"8 701 CURVE SMOOTH",
"8 637 OFFCURVE",
"50 594 OFFCURVE",
"112 594 CURVE SMOOTH"
);
}
);
width = 224;
},
{
layerId = "0BD25E4B-8A11-4E34-A837-2DA28743BADD";
paths = (
{
closed = 1;
nodes = (
"162 0 LINE",
"162 529 LINE",
"63 529 LINE",
"63 0 LINE"
);
},
{
closed = 1;
nodes = (
"151 631 OFFCURVE",
"177 658 OFFCURVE",
"177 697 CURVE SMOOTH",
"177 735 OFFCURVE",
"151 762 OFFCURVE",
"113 762 CURVE SMOOTH",
"75 762 OFFCURVE",
"48 735 OFFCURVE",
"48 697 CURVE SMOOTH",
"48 658 OFFCURVE",
"75 631 OFFCURVE",
"113 631 CURVE SMOOTH"
);
}
);
width = 225;
}
);
leftKerningGroup = i;
unicode = 0069;
},
{
glyphname = j;
lastChange = "2016-12-25 11:23:07 +0000";
layers = (
{
layerId = "262880E7-CFE1-4BDA-902E-E24798F3240A";
paths = (
{
closed = 1;
nodes = (
"91 -217 OFFCURVE",
"142 -164 OFFCURVE",
"142 -77 CURVE SMOOTH",
"142 515 LINE",
"120 515 LINE",
"120 -77 LINE SMOOTH",
"120 -151 OFFCURVE",
"78 -196 OFFCURVE",
"8 -196 CURVE",
"8 -217 LINE"
);
},
{
closed = 1;
nodes = (
"150 680 OFFCURVE",
"162 691 OFFCURVE",
"162 711 CURVE SMOOTH",
"162 730 OFFCURVE",
"150 740 OFFCURVE",
"131 740 CURVE SMOOTH",
"113 740 OFFCURVE",
"100 730 OFFCURVE",
"100 711 CURVE SMOOTH",
"100 691 OFFCURVE",
"113 680 OFFCURVE",
"131 680 CURVE SMOOTH"
);
}
);
width = 242;
},
{
layerId = "4E2227F3-52E4-4048-A8EE-327B486EF0A4";
paths = (
{
closed = 1;
nodes = (
"207 -227 OFFCURVE",
"212 -133 OFFCURVE",
"212 22 CURVE SMOOTH",
"212 560 LINE",
"24 560 LINE",
"24 22 LINE SMOOTH",
"24 -32 OFFCURVE",
"9 -66 OFFCURVE",
"-72 -58 CURVE",
"-72 -218 LINE"
);
},
{
closed = 1;
nodes = (
"179 594 OFFCURVE",
"222 642 OFFCURVE",
"222 701 CURVE SMOOTH",
"222 760 OFFCURVE",
"170 806 OFFCURVE",
"118 806 CURVE SMOOTH",
"65 806 OFFCURVE",
"14 760 OFFCURVE",
"14 701 CURVE SMOOTH",
"14 642 OFFCURVE",
"56 594 OFFCURVE",
"118 594 CURVE SMOOTH"
);
}
);
width = 232;
},
{
layerId = "0BD25E4B-8A11-4E34-A837-2DA28743BADD";
paths = (
{
closed = 1;
nodes = (
"154 -219 OFFCURVE",
"183 -148 OFFCURVE",
"183 -30 CURVE SMOOTH",
"183 529 LINE",
"84 529 LINE",
"84 -30 LINE SMOOTH",
"84 -94 OFFCURVE",
"54 -132 OFFCURVE",
"-21 -128 CURVE",
"-21 -214 LINE"
);
},
{
closed = 1;
nodes = (
"172 631 OFFCURVE",
"199 659 OFFCURVE",
"199 697 CURVE SMOOTH",
"199 734 OFFCURVE",
"168 762 OFFCURVE",
"134 762 CURVE SMOOTH",
"99 762 OFFCURVE",
"68 734 OFFCURVE",
"68 697 CURVE SMOOTH",
"68 659 OFFCURVE",
"95 631 OFFCURVE",
"134 631 CURVE SMOOTH"
);
}
);
width = 253;
}
);
leftKerningGroup = j;
unicode = 006A;
},
{
glyphname = k;
lastChange = "2016-12-25 11:23:07 +0000";
layers = (
{
guideLines = (
{
angle = 180;
position = "{287, 0}";
showMeasurement = 1;
},
{
angle = 180;
position = "{233, 332}";
showMeasurement = 1;
}
);
layerId = "262880E7-CFE1-4BDA-902E-E24798F3240A";
paths = (
{
closed = 1;
nodes = (
"122 0 LINE",
"122 207 LINE",
"270 364 LINE",
"407 0 LINE",
"431 0 LINE",
"286 381 LINE",
"411 515 LINE",
"383 515 LINE",
"122 233 LINE",
"122 721 LINE",
"100 721 LINE",
"100 0 LINE"
);
}
);
width = 461;
},
{
layerId = "4E2227F3-52E4-4048-A8EE-327B486EF0A4";
paths = (
{
closed = 1;
nodes = (
"208 0 LINE",
"208 156 LINE",
"221 197 LINE",
"273 0 LINE",
"467 0 LINE",
"336 343 LINE",
"461 560 LINE",
"268 560 LINE",
"208 410 LINE",
"208 756 LINE",
"20 756 LINE",
"20 0 LINE"
);
}
);
width = 473;
},
{
layerId = "0BD25E4B-8A11-4E34-A837-2DA28743BADD";
paths = (
{
closed = 1;
nodes = (
"170 0 LINE",
"170 194 LINE",
"240 282 LINE",
"348 0 LINE",
"451 0 LINE",
"305 349 LINE",
"438 529 LINE",
"333 529 LINE",
"170 321 LINE",
"170 728 LINE",
"70 728 LINE",
"70 0 LINE"
);
}
);
width = 472;
}
);
leftKerningGroup = b;
rightKerningGroup = k;
unicode = 006B;
},
{
glyphname = l;
lastChange = "2016-12-25 11:23:07 +0000";
layers = (
{
layerId = "262880E7-CFE1-4BDA-902E-E24798F3240A";
paths = (
{
closed = 1;
nodes = (
"122 0 LINE",
"122 721 LINE",
"100 721 LINE",
"100 0 LINE"
);
}
);
width = 222;
},
{
layerId = "4E2227F3-52E4-4048-A8EE-327B486EF0A4";
paths = (
{
closed = 1;
nodes = (
"208 0 LINE",
"208 756 LINE",
"20 756 LINE",
"20 0 LINE"
);
}
);
width = 228;
},
{
layerId = "0BD25E4B-8A11-4E34-A837-2DA28743BADD";
paths = (
{
closed = 1;
nodes = (
"169 0 LINE",
"169 728 LINE",
"70 728 LINE",
"70 0 LINE"
);
}
);
width = 239;
}
);
leftKerningGroup = l;
rightKerningGroup = l;
unicode = 006C;
},
{
glyphname = m;
lastChange = "2016-12-25 11:23:07 +0000";
layers = (
{
components = (
{
name = n.curve;
transform = "{1, 0, 0, 1, 84, 0}";
},
{
name = n.curve;
transform = "{1, 0, 0, 1, 390, 0}";
}
);
layerId = "262880E7-CFE1-4BDA-902E-E24798F3240A";
paths = (
{
closed = 1;
nodes = (
"102 0 LINE",
"102 515 LINE",
"80 515 LINE",
"80 0 LINE"
);
}
);
width = 784;
},
{
components = (
{
name = n.curve;
transform = "{1, 0, 0, 1, 168, 0}";
},
{
name = n.curve;
transform = "{1, 0, 0, 1, 400, 0}";
}
);
layerId = "4E2227F3-52E4-4048-A8EE-327B486EF0A4";
paths = (
{
closed = 1;
nodes = (
"204 0 LINE",
"204 560 LINE",
"16 560 LINE",
"16 0 LINE"
);
}
);
width = 682;
},
{
components = (
{
name = n.curve;
transform = "{1, 0, 0, 1, 129, 0}";
},
{
name = n.curve;
transform = "{1, 0, 0, 1, 400, 0}";
}
);
layerId = "0BD25E4B-8A11-4E34-A837-2DA28743BADD";
paths = (
{
closed = 1;
nodes = (
"155 0 LINE",
"155 529 LINE",
"56 529 LINE",
"56 0 LINE"
);
}
);
width = 747;
}
);
leftKerningGroup = n;
rightKerningGroup = h;
unicode = 006D;
},
{
glyphname = n;
lastChange = "2016-12-25 11:23:07 +0000";
layers = (
{
components = (
{
name = n.curve;
transform = "{1, 0, 0, 1, 84, 0}";
}
);
guideLines = (
{
angle = 60;
position = "{231, 250}";
showMeasurement = 1;
}
);
layerId = "262880E7-CFE1-4BDA-902E-E24798F3240A";
paths = (
{
closed = 1;
nodes = (
"102 0 LINE",
"102 515 LINE",
"80 515 LINE",
"80 0 LINE"
);
}
);
width = 478;
},
{
components = (
{
name = n.curve;
transform = "{1, 0, 0, 1, 168, 0}";
}
);
layerId = "4E2227F3-52E4-4048-A8EE-327B486EF0A4";
paths = (
{
closed = 1;
nodes = (
"204 0 LINE",
"204 560 LINE",
"16 560 LINE",
"16 0 LINE"
);
}
);
width = 450;
},
{
components = (
{
name = n.curve;
transform = "{1, 0, 0, 1, 129, 0}";
}
);
layerId = "0BD25E4B-8A11-4E34-A837-2DA28743BADD";
paths = (
{
closed = 1;
nodes = (
"155 0 LINE",
"155 529 LINE",
"56 529 LINE",
"56 0 LINE"
);
}
);
width = 476;
}
);
leftKerningGroup = n;
rightKerningGroup = n;
unicode = 006E;
},
{
glyphname = o;
lastChange = "2016-12-25 11:23:07 +0000";
layers = (
{
guideLines = (
{
angle = 180;
position = "{231, 250}";
showMeasurement = 1;
},
{
angle = 120;
position = "{231, 250}";
showMeasurement = 1;
},
{
angle = 60;
position = "{231, 250}";
showMeasurement = 1;
}
);
layerId = "262880E7-CFE1-4BDA-902E-E24798F3240A";
paths = (
{
closed = 1;
nodes = (
"330 -8 OFFCURVE",
"397 60 OFFCURVE",
"397 161 CURVE SMOOTH",
"397 354 LINE SMOOTH",
"397 455 OFFCURVE",
"330 523 OFFCURVE",
"228 523 CURVE SMOOTH",
"128 523 OFFCURVE",
"60 455 OFFCURVE",
"60 354 CURVE SMOOTH",
"60 161 LINE SMOOTH",
"60 60 OFFCURVE",
"128 -8 OFFCURVE",
"228 -8 CURVE SMOOTH"
);
},
{
closed = 1;
nodes = (
"141 13 OFFCURVE",
"82 69 OFFCURVE",
"82 159 CURVE SMOOTH",
"82 355 LINE SMOOTH",
"82 446 OFFCURVE",
"141 502 OFFCURVE",
"228 502 CURVE SMOOTH",
"317 502 OFFCURVE",
"375 446 OFFCURVE",
"375 355 CURVE SMOOTH",
"375 159 LINE SMOOTH",
"375 69 OFFCURVE",
"317 13 OFFCURVE",
"228 13 CURVE SMOOTH"
);
}
);
width = 457;
},
{
layerId = "4E2227F3-52E4-4048-A8EE-327B486EF0A4";
paths = (
{
closed = 1;
nodes = (
"361 -8 OFFCURVE",
"437 72 OFFCURVE",
"437 203 CURVE SMOOTH",
"437 357 LINE SMOOTH",
"437 491 OFFCURVE",
"361 572 OFFCURVE",
"225 572 CURVE SMOOTH",
"89 572 OFFCURVE",
"12 491 OFFCURVE",
"12 357 CURVE SMOOTH",
"12 203 LINE SMOOTH",
"12 72 OFFCURVE",
"89 -8 OFFCURVE",
"225 -8 CURVE SMOOTH"
);
},
{
closed = 1;
nodes = (
"208 153 OFFCURVE",
"200 169 OFFCURVE",
"200 198 CURVE SMOOTH",
"200 362 LINE SMOOTH",
"200 391 OFFCURVE",
"208 407 OFFCURVE",
"225 407 CURVE SMOOTH",
"241 407 OFFCURVE",
"249 391 OFFCURVE",
"249 362 CURVE SMOOTH",
"249 198 LINE SMOOTH",
"249 169 OFFCURVE",
"241 153 OFFCURVE",
"225 153 CURVE SMOOTH"
);
}
);
width = 449;
},
{
layerId = "0BD25E4B-8A11-4E34-A837-2DA28743BADD";
paths = (
{
closed = 1;
nodes = (
"350 -8 OFFCURVE",
"422 68 OFFCURVE",
"422 182 CURVE SMOOTH",
"422 349 LINE SMOOTH",
"422 465 OFFCURVE",
"351 539 OFFCURVE",
"232 539 CURVE SMOOTH",
"115 539 OFFCURVE",
"41 465 OFFCURVE",
"41 349 CURVE SMOOTH",
"41 182 LINE SMOOTH",
"41 68 OFFCURVE",
"114 -8 OFFCURVE",
"231 -8 CURVE SMOOTH"
);
},
{
closed = 1;
nodes = (
"175 82 OFFCURVE",
"141 119 OFFCURVE",
"141 179 CURVE SMOOTH",
"141 352 LINE SMOOTH",
"141 412 OFFCURVE",
"175 449 OFFCURVE",
"231 449 CURVE SMOOTH",
"288 449 OFFCURVE",
"322 412 OFFCURVE",
"322 352 CURVE SMOOTH",
"322 179 LINE SMOOTH",
"322 119 OFFCURVE",
"288 82 OFFCURVE",
"231 82 CURVE SMOOTH"
);
}
);
width = 463;
}
);
leftKerningGroup = o;
rightKerningGroup = o;
unicode = 006F;
},
{
glyphname = r;
lastChange = "2016-12-25 11:23:07 +0000";
layers = (
{
layerId = "262880E7-CFE1-4BDA-902E-E24798F3240A";
paths = (
{
closed = 1;
nodes = (
"112 341 LINE",
"112 432 OFFCURVE",
"168 494 OFFCURVE",
"248 494 CURVE SMOOTH",
"274 494 OFFCURVE",
"288 489 OFFCURVE",
"303 481 CURVE",
"314 504 LINE",
"297 513 OFFCURVE",
"280 519 OFFCURVE",
"250 519 CURVE SMOOTH",
"157 519 OFFCURVE",
"97 451 OFFCURVE",
"97 341 CURVE"
);
},
{
closed = 1;
nodes = (
"112 0 LINE",
"112 515 LINE",
"90 515 LINE",
"90 0 LINE"
);
}
);
width = 314;
},
{
layerId = "4E2227F3-52E4-4048-A8EE-327B486EF0A4";
paths = (
{
closed = 1;
nodes = (
"206 300 LINE",
"206 329 OFFCURVE",
"218 358 OFFCURVE",
"237 367 CURVE SMOOTH",
"261 378 OFFCURVE",
"300 372 OFFCURVE",
"310 364 CURVE",
"339 549 LINE",
"330 559 OFFCURVE",
"314 567 OFFCURVE",
"289 567 CURVE SMOOTH",
"172 567 OFFCURVE",
"178 390 OFFCURVE",
"178 300 CURVE"
);
},
{
closed = 1;
nodes = (
"206 1 LINE",
"206 560 LINE",
"18 560 LINE",
"18 1 LINE"
);
}
);
width = 339;
},
{
layerId = "0BD25E4B-8A11-4E34-A837-2DA28743BADD";
paths = (
{
closed = 1;
nodes = (
"162 318 LINE",
"162 377 OFFCURVE",
"196 424 OFFCURVE",
"245 429 CURVE SMOOTH",
"269 432 OFFCURVE",
"295 428 OFFCURVE",
"307 419 CURVE",
"325 518 LINE",
"312 528 OFFCURVE",
"296 535 OFFCURVE",
"271 535 CURVE SMOOTH",
"174 535 OFFCURVE",
"122 430 OFFCURVE",
"122 318 CURVE"
);
},
{
closed = 1;
nodes = (
"162 0 LINE",
"162 530 LINE",
"63 530 LINE",
"63 0 LINE"
);
}
);
width = 325;
}
);
leftKerningGroup = n;
rightKerningGroup = r;
unicode = 0072;
},
{
glyphname = s;
lastChange = "2016-12-25 11:23:07 +0000";
layers = (
{
layerId = "262880E7-CFE1-4BDA-902E-E24798F3240A";
paths = (
{
closed = 1;
nodes = (
"308 -4 OFFCURVE",
"371 48 OFFCURVE",
"371 127 CURVE SMOOTH",
"371 218 OFFCURVE",
"287 245 OFFCURVE",
"209 272 CURVE SMOOTH",
"140 296 OFFCURVE",
"74 319 OFFCURVE",
"74 389 CURVE SMOOTH",
"74 455 OFFCURVE",
"127 498 OFFCURVE",
"209 498 CURVE SMOOTH",
"292 498 OFFCURVE",
"347 451 OFFCURVE",
"347 380 CURVE SMOOTH",
"347 354 LINE",
"369 354 LINE",
"369 380 LINE SMOOTH",
"369 463 OFFCURVE",
"306 519 OFFCURVE",
"210 519 CURVE SMOOTH",
"116 519 OFFCURVE",
"52 468 OFFCURVE",
"52 389 CURVE SMOOTH",
"52 303 OFFCURVE",
"128 276 OFFCURVE",
"204 251 CURVE SMOOTH",
"277 227 OFFCURVE",
"349 202 OFFCURVE",
"349 127 CURVE SMOOTH",
"349 60 OFFCURVE",
"294 17 OFFCURVE",
"212 17 CURVE SMOOTH",
"127 17 OFFCURVE",
"72 62 OFFCURVE",
"72 130 CURVE SMOOTH",
"72 162 LINE",
"50 162 LINE",
"50 130 LINE SMOOTH",
"50 49 OFFCURVE",
"115 -4 OFFCURVE",
"212 -4 CURVE SMOOTH"
);
}
);
width = 421;
},
{
layerId = "4E2227F3-52E4-4048-A8EE-327B486EF0A4";
paths = (
{
closed = 1;
nodes = (
"349 -8 OFFCURVE",
"425 51 OFFCURVE",
"425 147 CURVE SMOOTH",
"425 230 OFFCURVE",
"366 293 OFFCURVE",
"265 326 CURVE SMOOTH",
"221 340 OFFCURVE",
"195 357 OFFCURVE",
"195 375 CURVE SMOOTH",
"195 392 OFFCURVE",
"202 403 OFFCURVE",
"215 403 CURVE SMOOTH",
"229 403 OFFCURVE",
"238 388 OFFCURVE",
"238 367 CURVE SMOOTH",
"238 364 LINE",
"413 364 LINE",
"413 366 LINE SMOOTH",
"413 493 OFFCURVE",
"339 568 OFFCURVE",
"214 568 CURVE SMOOTH",
"89 568 OFFCURVE",
"15 505 OFFCURVE",
"15 398 CURVE SMOOTH",
"15 304 OFFCURVE",
"71 240 OFFCURVE",
"167 214 CURVE SMOOTH",
"207 203 OFFCURVE",
"230 185 OFFCURVE",
"230 165 CURVE SMOOTH",
"230 148 OFFCURVE",
"223 136 OFFCURVE",
"212 136 CURVE SMOOTH",
"198 136 OFFCURVE",
"189 151 OFFCURVE",
"189 176 CURVE SMOOTH",
"189 178 LINE",
"10 178 LINE",
"10 176 LINE",
"10 60 OFFCURVE",
"87 -8 OFFCURVE",
"219 -8 CURVE SMOOTH"
);
}
);
width = 435;
},
{
layerId = "0BD25E4B-8A11-4E34-A837-2DA28743BADD";
paths = (
{
closed = 1;
nodes = (
"329 -6 OFFCURVE",
"396 53 OFFCURVE",
"396 139 CURVE SMOOTH",
"396 225 OFFCURVE",
"327 266 OFFCURVE",
"239 298 CURVE SMOOTH",
"194 315 OFFCURVE",
"138 331 OFFCURVE",
"138 380 CURVE SMOOTH",
"138 417 OFFCURVE",
"169 445 OFFCURVE",
"215 445 CURVE SMOOTH",
"264 445 OFFCURVE",
"296 409 OFFCURVE",
"296 367 CURVE SMOOTH",
"296 358 LINE",
"389 358 LINE",
"389 369 LINE SMOOTH",
"389 471 OFFCURVE",
"324 535 OFFCURVE",
"214 535 CURVE SMOOTH",
"111 535 OFFCURVE",
"38 478 OFFCURVE",
"38 385 CURVE SMOOTH",
"38 291 OFFCURVE",
"113 254 OFFCURVE",
"191 226 CURVE SMOOTH",
"255 203 OFFCURVE",
"296 187 OFFCURVE",
"296 146 CURVE SMOOTH",
"296 110 OFFCURVE",
"266 81 OFFCURVE",
"218 81 CURVE SMOOTH",
"169 81 OFFCURVE",
"135 112 OFFCURVE",
"135 159 CURVE SMOOTH",
"135 167 LINE",
"35 167 LINE",
"35 149 LINE",
"35 53 OFFCURVE",
"109 -6 OFFCURVE",
"219 -6 CURVE SMOOTH"
);
}
);
width = 431;
}
);
leftKerningGroup = s;
rightKerningGroup = s;
unicode = 0073;
},
{
glyphname = t;
lastChange = "2016-12-25 11:23:07 +0000";
layers = (
{
layerId = "262880E7-CFE1-4BDA-902E-E24798F3240A";
paths = (
{
closed = 1;
nodes = (
"254 0 LINE",
"254 21 LINE",
"226 21 LINE SMOOTH",
"158 21 OFFCURVE",
"122 44 OFFCURVE",
"122 126 CURVE SMOOTH",
"122 628 LINE",
"100 628 LINE",
"100 127 LINE SMOOTH",
"100 24 OFFCURVE",
"152 0 OFFCURVE",
"226 0 CURVE SMOOTH"
);
},
{
closed = 1;
nodes = (
"253 494 LINE",
"253 515 LINE",
"28 515 LINE",
"28 494 LINE"
);
}
);
width = 274;
},
{
layerId = "4E2227F3-52E4-4048-A8EE-327B486EF0A4";
paths = (
{
closed = 1;
nodes = (
"276 6 LINE",
"276 176 LINE",
"259 176 LINE",
"241 175 OFFCURVE",
"228 182 OFFCURVE",
"228 219 CURVE",
"228 688 LINE",
"48 688 LINE",
"48 132 LINE",
"48 21 OFFCURVE",
"115 -9 OFFCURVE",
"213 0 CURVE SMOOTH"
);
},
{
closed = 1;
nodes = (
"291 427 LINE",
"291 560 LINE",
"0 560 LINE",
"0 427 LINE"
);
}
);
width = 295;
},
{
layerId = "0BD25E4B-8A11-4E34-A837-2DA28743BADD";
paths = (
{
closed = 1;
nodes = (
"298 0 LINE",
"296 90 LINE",
"246 90 LINE SMOOTH",
"191 90 OFFCURVE",
"170 104 OFFCURVE",
"170 186 CURVE SMOOTH",
"170 647 LINE",
"70 647 LINE",
"70 161 LINE SMOOTH",
"70 32 OFFCURVE",
"126 0 OFFCURVE",
"236 0 CURVE SMOOTH"
);
},
{
closed = 1;
nodes = (
"301 444 LINE",
"301 529 LINE",
"0 529 LINE",
"0 444 LINE"
);
}
);
width = 315;
},
{
associatedMasterId = "0BD25E4B-8A11-4E34-A837-2DA28743BADD";
layerId = "E7876029-200A-4733-ACA1-1CC53838F6E6";
name = "Dec 24 16, 17:55";
paths = (
{
closed = 1;
nodes = (
"260 0 LINE",
"260 90 LINE",
"230 90 LINE SMOOTH",
"191 90 OFFCURVE",
"166 105 OFFCURVE",
"166 152 CURVE SMOOTH",
"166 624 LINE",
"70 624 LINE",
"70 125 LINE SMOOTH",
"70 50 OFFCURVE",
"116 -1 OFFCURVE",
"210 0 CURVE SMOOTH"
);
},
{
closed = 1;
nodes = (
"266 437 LINE",
"266 510 LINE",
"10 510 LINE",
"10 437 LINE"
);
}
);
width = 280;
visible = 1;
}
);
leftKerningGroup = t;
rightKerningGroup = t;
unicode = 0074;
},
{
glyphname = v;
lastChange = "2016-12-25 11:23:07 +0000";
layers = (
{
layerId = "262880E7-CFE1-4BDA-902E-E24798F3240A";
paths = (
{
closed = 1;
nodes = (
"219 0 LINE",
"385 515 LINE",
"360 515 LINE",
"208 33 LINE",
"55 515 LINE",
"30 515 LINE",
"197 0 LINE"
);
}
);
width = 425;
},
{
layerId = "4E2227F3-52E4-4048-A8EE-327B486EF0A4";
paths = (
{
closed = 1;
nodes = (
"339 -2 LINE",
"464 558 LINE",
"260 560 LINE",
"235 256 LINE",
"210 560 LINE",
"6 560 LINE",
"131 0 LINE"
);
}
);
width = 472;
},
{
layerId = "0BD25E4B-8A11-4E34-A837-2DA28743BADD";
paths = (
{
closed = 1;
nodes = (
"267 -1 LINE",
"417 528 LINE",
"308 529 LINE",
"219 137 LINE",
"129 529 LINE",
"21 529 LINE",
"171 0 LINE"
);
}
);
width = 445;
}
);
leftKerningGroup = v;
rightKerningGroup = v;
unicode = 0076;
},
{
glyphname = w;
lastChange = "2016-12-25 11:23:07 +0000";
layers = (
{
layerId = "262880E7-CFE1-4BDA-902E-E24798F3240A";
paths = (
{
closed = 1;
nodes = (
"193 0 LINE",
"320 476 LINE",
"448 0 LINE",
"470 0 LINE",
"610 515 LINE",
"588 515 LINE",
"459 27 LINE",
"331 515 LINE",
"310 515 LINE",
"182 27 LINE",
"55 515 LINE",
"30 515 LINE",
"171 0 LINE"
);
}
);
width = 650;
},
{
layerId = "4E2227F3-52E4-4048-A8EE-327B486EF0A4";
paths = (
{
closed = 1;
nodes = (
"291 -2 LINE",
"316 254 LINE",
"347 0 LINE",
"531 -2 LINE",
"643 558 LINE",
"465 560 LINE",
"428 258 LINE",
"405 560 LINE",
"243 560 LINE",
"222 258 LINE",
"187 560 LINE",
"6 560 LINE",
"117 0 LINE"
);
}
);
width = 651;
},
{
layerId = "0BD25E4B-8A11-4E34-A837-2DA28743BADD";
paths = (
{
closed = 1;
nodes = (
"245 -1 LINE",
"315 381 LINE",
"391 0 LINE",
"486 -1 LINE",
"611 528 LINE",
"507 529 LINE",
"439 150 LINE",
"359 529 LINE",
"264 529 LINE",
"195 150 LINE",
"124 529 LINE",
"21 529 LINE",
"145 0 LINE"
);
}
);
width = 639;
}
);
leftKerningGroup = v;
rightKerningGroup = v;
unicode = 0077;
},
{
glyphname = x;
lastChange = "2016-12-25 11:23:07 +0000";
layers = (
{
layerId = "262880E7-CFE1-4BDA-902E-E24798F3240A";
paths = (
{
closed = 1;
nodes = (
"55 0 LINE",
"212 241 LINE",
"368 0 LINE",
"393 0 LINE",
"223 257 LINE",
"393 515 LINE",
"368 515 LINE",
"212 274 LINE",
"55 515 LINE",
"30 515 LINE",
"201 257 LINE",
"30 0 LINE"
);
}
);
width = 433;
},
{
layerId = "4E2227F3-52E4-4048-A8EE-327B486EF0A4";
paths = (
{
closed = 1;
nodes = (
"200 0 LINE",
"231 125 LINE",
"262 0 LINE",
"456 0 LINE",
"326 280 LINE",
"456 560 LINE",
"262 560 LINE",
"231 440 LINE",
"200 560 LINE",
"6 560 LINE",
"136 280 LINE",
"6 0 LINE"
);
}
);
width = 464;
},
{
layerId = "0BD25E4B-8A11-4E34-A837-2DA28743BADD";
paths = (
{
closed = 1;
nodes = (
"125 0 LINE",
"223 183 LINE",
"321 0 LINE",
"425 0 LINE",
"273 265 LINE",
"425 529 LINE",
"321 529 LINE",
"223 348 LINE",
"125 529 LINE",
"21 529 LINE",
"173 265 LINE",
"21 0 LINE"
);
}
);
width = 453;
}
);
leftKerningGroup = x;
unicode = 0078;
},
{
glyphname = y;
lastChange = "2016-12-25 11:23:07 +0000";
layers = (
{
layerId = "262880E7-CFE1-4BDA-902E-E24798F3240A";
paths = (
{
closed = 1;
nodes = (
"71 -206 LINE",
"135 -205 OFFCURVE",
"160 -191 OFFCURVE",
"201 -64 CURVE SMOOTH",
"389 515 LINE",
"367 515 LINE",
"213 27 LINE",
"52 515 LINE",
"30 515 LINE",
"202 0 LINE",
"156 -152 OFFCURVE",
"142 -186 OFFCURVE",
"71 -187 CURVE",
"57 -187 LINE",
"57 -206 LINE"
);
}
);
width = 429;
},
{
layerId = "4E2227F3-52E4-4048-A8EE-327B486EF0A4";
paths = (
{
closed = 1;
nodes = (
"40 -215 LINE",
"247 -215 OFFCURVE",
"284 -155 OFFCURVE",
"323 -8 CURVE",
"453 558 LINE",
"251 560 LINE",
"230 252 LINE",
"207 560 LINE",
"6 560 LINE",
"135 0 LINE",
"143 -53 OFFCURVE",
"105 -61 OFFCURVE",
"37 -61 CURVE",
"28 -61 LINE",
"28 -215 LINE"
);
}
);
width = 461;
},
{
layerId = "0BD25E4B-8A11-4E34-A837-2DA28743BADD";
paths = (
{
closed = 1;
nodes = (
"57 -208 LINE",
"186 -207 OFFCURVE",
"216 -172 OFFCURVE",
"254 -37 CURVE SMOOTH",
"411 529 LINE",
"303 530 LINE",
"217 132 LINE",
"126 530 LINE",
"21 530 LINE",
"167 0 LINE",
"148 -103 OFFCURVE",
"123 -125 OFFCURVE",
"55 -126 CURVE",
"27 -126 LINE",
"27 -208 LINE"
);
}
);
width = 439;
}
);
leftKerningGroup = v;
rightKerningGroup = v;
unicode = 0079;
},
{
glyphname = z;
lastChange = "2016-12-25 11:23:07 +0000";
layers = (
{
layerId = "262880E7-CFE1-4BDA-902E-E24798F3240A";
paths = (
{
closed = 1;
nodes = (
"375 0 LINE",
"375 21 LINE",
"64 21 LINE",
"379 494 LINE",
"379 515 LINE",
"44 515 LINE",
"44 494 LINE",
"355 494 LINE",
"40 21 LINE",
"40 0 LINE"
);
}
);
width = 429;
},
{
layerId = "4E2227F3-52E4-4048-A8EE-327B486EF0A4";
paths = (
{
closed = 1;
nodes = (
"373 0 LINE",
"373 170 LINE",
"222 170 LINE",
"364 390 LINE",
"364 560 LINE",
"15 560 LINE",
"15 390 LINE",
"140 390 LINE",
"8 170 LINE",
"8 0 LINE"
);
}
);
width = 383;
},
{
layerId = "0BD25E4B-8A11-4E34-A837-2DA28743BADD";
paths = (
{
closed = 1;
nodes = (
"377 0 LINE",
"377 90 LINE",
"141 90 LINE",
"375 439 LINE",
"375 529 LINE",
"33 529 LINE",
"33 439 LINE",
"258 439 LINE",
"28 90 LINE",
"28 0 LINE"
);
}
);
width = 412;
}
);
leftKerningGroup = z;
unicode = 007A;
},
{
glyphname = a.alt;
lastChange = "2016-12-25 11:23:07 +0000";
layers = (
{
components = (
{
name = b.bowl;
transform = "{-1, 0, 0, 1, 403, 0}";
}
);
layerId = "262880E7-CFE1-4BDA-902E-E24798F3240A";
paths = (
{
closed = 1;
nodes = (
"406 0 LINE",
"406 515 LINE",
"384 515 LINE",
"384 0 LINE"
);
}
);
width = 455;
},
{
components = (
{
name = b.bowl;
transform = "{-1, 0, 0, 1, 281, 0}";
}
);
layerId = "4E2227F3-52E4-4048-A8EE-327B486EF0A4";
paths = (
{
closed = 1;
nodes = (
"433 0 LINE",
"433 560 LINE",
"245 560 LINE",
"245 0 LINE"
);
}
);
width = 449;
},
{
components = (
{
name = b.bowl;
transform = "{-1, 0, 0, 1, 346, 0}";
}
);
layerId = "0BD25E4B-8A11-4E34-A837-2DA28743BADD";
paths = (
{
closed = 1;
nodes = (
"419 0 LINE",
"419 529 LINE",
"319 529 LINE",
"319 0 LINE"
);
}
);
width = 452;
}
);
leftKerningGroup = a;
rightKerningGroup = a;
},
{
export = 0;
glyphname = b.bowl;
lastChange = "2016-12-25 11:23:07 +0000";
layers = (
{
layerId = "262880E7-CFE1-4BDA-902E-E24798F3240A";
paths = (
{
closed = 1;
nodes = (
"272 -8 OFFCURVE",
"335 57 OFFCURVE",
"335 163 CURVE SMOOTH",
"335 352 LINE SMOOTH",
"335 458 OFFCURVE",
"274 523 OFFCURVE",
"169 523 CURVE SMOOTH",
"65 523 OFFCURVE",
"0 454 OFFCURVE",
"0 353 CURVE SMOOTH",
"0 162 LINE SMOOTH",
"0 54 OFFCURVE",
"70 -8 OFFCURVE",
"167 -8 CURVE SMOOTH"
);
},
{
closed = 1;
nodes = (
"79 13 OFFCURVE",
"19 69 OFFCURVE",
"19 159 CURVE SMOOTH",
"19 355 LINE SMOOTH",
"19 446 OFFCURVE",
"79 502 OFFCURVE",
"167 502 CURVE SMOOTH",
"259 502 OFFCURVE",
"313 446 OFFCURVE",
"313 355 CURVE SMOOTH",
"313 159 LINE SMOOTH",
"313 69 OFFCURVE",
"259 13 OFFCURVE",
"167 13 CURVE SMOOTH"
);
}
);
width = 335;
},
{
layerId = "4E2227F3-52E4-4048-A8EE-327B486EF0A4";
paths = (
{
closed = 1;
nodes = (
"227 -9 OFFCURVE",
"267 70 OFFCURVE",
"267 192 CURVE SMOOTH",
"267 367 LINE SMOOTH",
"267 489 OFFCURVE",
"227 568 OFFCURVE",
"126 568 CURVE SMOOTH",
"91 568 OFFCURVE",
"0 541 OFFCURVE",
"0 347 CURVE SMOOTH",
"0 213 LINE",
"-4 19 OFFCURVE",
"91 -9 OFFCURVE",
"126 -9 CURVE SMOOTH"
);
},
{
closed = 1;
nodes = (
"42 163 OFFCURVE",
"34 179 OFFCURVE",
"34 210 CURVE SMOOTH",
"34 350 LINE SMOOTH",
"34 381 OFFCURVE",
"42 397 OFFCURVE",
"56 397 CURVE SMOOTH",
"71 397 OFFCURVE",
"79 381 OFFCURVE",
"79 350 CURVE SMOOTH",
"79 210 LINE SMOOTH",
"79 179 OFFCURVE",
"71 163 OFFCURVE",
"56 163 CURVE SMOOTH"
);
}
);
width = 267;
},
{
layerId = "0BD25E4B-8A11-4E34-A837-2DA28743BADD";
paths = (
{
closed = 1;
nodes = (
"232 -8 OFFCURVE",
"304 63 OFFCURVE",
"304 188 CURVE SMOOTH",
"304 339 LINE SMOOTH",
"304 464 OFFCURVE",
"232 537 OFFCURVE",
"142 537 CURVE SMOOTH",
"39 537 OFFCURVE",
"-20 453 OFFCURVE",
"-20 324 CURVE SMOOTH",
"-20 205 LINE SMOOTH",
"-20 76 OFFCURVE",
"39 -8 OFFCURVE",
"142 -8 CURVE SMOOTH"
);
},
{
closed = 1;
nodes = (
"58 82 OFFCURVE",
"26 119 OFFCURVE",
"26 184 CURVE SMOOTH",
"26 345 LINE SMOOTH",
"26 410 OFFCURVE",
"58 447 OFFCURVE",
"116 447 CURVE SMOOTH",
"172 447 OFFCURVE",
"204 410 OFFCURVE",
"204 345 CURVE SMOOTH",
"204 184 LINE SMOOTH",
"204 119 OFFCURVE",
"172 82 OFFCURVE",
"116 82 CURVE SMOOTH"
);
}
);
width = 304;
},
{
associatedMasterId = "0BD25E4B-8A11-4E34-A837-2DA28743BADD";
layerId = "18E206A2-EA5F-42C2-BF00-093367A09C51";
name = "Dec 25 16, 04:03";
paths = (
{
closed = 1;
nodes = (
"236 -8 OFFCURVE",
"304 58 OFFCURVE",
"304 167 CURVE SMOOTH",
"304 327 LINE SMOOTH",
"304 448 OFFCURVE",
"232 517 OFFCURVE",
"142 517 CURVE SMOOTH",
"39 517 OFFCURVE",
"-20 435 OFFCURVE",
"-20 310 CURVE SMOOTH",
"-20 199 LINE SMOOTH",
"-20 73 OFFCURVE",
"39 -8 OFFCURVE",
"141 -8 CURVE SMOOTH"
);
},
{
closed = 1;
nodes = (
"61 82 OFFCURVE",
"26 117 OFFCURVE",
"26 174 CURVE SMOOTH",
"26 336 LINE SMOOTH",
"26 393 OFFCURVE",
"61 427 OFFCURVE",
"116 427 CURVE SMOOTH",
"174 427 OFFCURVE",
"204 398 OFFCURVE",
"204 331 CURVE SMOOTH",
"204 174 LINE SMOOTH",
"204 116 OFFCURVE",
"170 82 OFFCURVE",
"116 82 CURVE SMOOTH"
);
}
);
width = 304;
}
);
},
{
export = 0;
glyphname = n.curve;
lastChange = "2016-12-25 11:23:07 +0000";
layers = (
{
layerId = "262880E7-CFE1-4BDA-902E-E24798F3240A";
paths = (
{
closed = 1;
nodes = (
"324 0 LINE",
"324 351 LINE SMOOTH",
"324 458 OFFCURVE",
"259 522 OFFCURVE",
"166 522 CURVE SMOOTH",
"66 522 OFFCURVE",
"0 461 OFFCURVE",
"0 357 CURVE",
"18 356 LINE",
"18 446 OFFCURVE",
"75 501 OFFCURVE",
"163 501 CURVE SMOOTH",
"242 501 OFFCURVE",
"302 455 OFFCURVE",
"302 351 CURVE SMOOTH",
"302 0 LINE"
);
}
);
width = 324;
},
{
layerId = "4E2227F3-52E4-4048-A8EE-327B486EF0A4";
paths = (
{
closed = 1;
nodes = (
"268 0 LINE",
"268 374 LINE SMOOTH",
"268 493 OFFCURVE",
"227 568 OFFCURVE",
"126 568 CURVE SMOOTH",
"89 568 OFFCURVE",
"-1 547 OFFCURVE",
"0 357 CURVE",
"36 362 LINE",
"36 391 OFFCURVE",
"44 407 OFFCURVE",
"59 407 CURVE SMOOTH",
"73 407 OFFCURVE",
"80 391 OFFCURVE",
"80 362 CURVE SMOOTH",
"80 0 LINE"
);
}
);
width = 268;
},
{
layerId = "0BD25E4B-8A11-4E34-A837-2DA28743BADD";
paths = (
{
closed = 1;
nodes = (
"298 0 LINE",
"298 350 LINE SMOOTH",
"298 463 OFFCURVE",
"232 537 OFFCURVE",
"141 537 CURVE SMOOTH",
"43 537 OFFCURVE",
"-6 481 OFFCURVE",
"-6 322 CURVE",
"26 351 LINE",
"26 411 OFFCURVE",
"61 447 OFFCURVE",
"113 447 CURVE SMOOTH",
"169 447 OFFCURVE",
"199 415 OFFCURVE",
"199 350 CURVE SMOOTH",
"199 0 LINE"
);
}
);
width = 298;
}
);
},
{
glyphname = zero;
lastChange = "2016-12-25 11:23:07 +0000";
layers = (
{
layerId = "262880E7-CFE1-4BDA-902E-E24798F3240A";
paths = (
{
closed = 1;
nodes = (
"346 -9 OFFCURVE",
"415 58 OFFCURVE",
"415 158 CURVE SMOOTH",
"415 563 LINE SMOOTH",
"415 663 OFFCURVE",
"346 730 OFFCURVE",
"248 730 CURVE SMOOTH",
"150 730 OFFCURVE",
"80 663 OFFCURVE",
"80 563 CURVE SMOOTH",
"80 158 LINE SMOOTH",
"80 58 OFFCURVE",
"150 -9 OFFCURVE",
"248 -9 CURVE SMOOTH"
);
},
{
closed = 1;
nodes = (
"163 12 OFFCURVE",
"102 70 OFFCURVE",
"102 156 CURVE SMOOTH",
"102 565 LINE SMOOTH",
"102 651 OFFCURVE",
"163 709 OFFCURVE",
"248 709 CURVE SMOOTH",
"333 709 OFFCURVE",
"393 651 OFFCURVE",
"393 565 CURVE SMOOTH",
"393 156 LINE SMOOTH",
"393 70 OFFCURVE",
"333 12 OFFCURVE",
"248 12 CURVE SMOOTH"
);
}
);
width = 495;
},
{
layerId = "4E2227F3-52E4-4048-A8EE-327B486EF0A4";
paths = (
{
closed = 1;
nodes = (
"371 -9 OFFCURVE",
"458 82 OFFCURVE",
"458 220 CURVE SMOOTH",
"458 536 LINE SMOOTH",
"458 674 OFFCURVE",
"371 765 OFFCURVE",
"241 765 CURVE SMOOTH",
"111 765 OFFCURVE",
"24 674 OFFCURVE",
"24 536 CURVE SMOOTH",
"24 220 LINE SMOOTH",
"24 82 OFFCURVE",
"111 -9 OFFCURVE",
"241 -9 CURVE SMOOTH"
);
},
{
closed = 1;
nodes = (
"224 161 OFFCURVE",
"212 184 OFFCURVE",
"212 220 CURVE SMOOTH",
"212 536 LINE SMOOTH",
"212 572 OFFCURVE",
"224 595 OFFCURVE",
"241 595 CURVE SMOOTH",
"258 595 OFFCURVE",
"270 572 OFFCURVE",
"270 536 CURVE SMOOTH",
"270 220 LINE SMOOTH",
"270 184 OFFCURVE",
"258 161 OFFCURVE",
"241 161 CURVE SMOOTH"
);
}
);
width = 482;
},
{
layerId = "0BD25E4B-8A11-4E34-A837-2DA28743BADD";
paths = (
{
closed = 1;
nodes = (
"360 -9 OFFCURVE",
"437 68 OFFCURVE",
"437 185 CURVE SMOOTH",
"437 543 LINE SMOOTH",
"437 660 OFFCURVE",
"360 737 OFFCURVE",
"247 737 CURVE SMOOTH",
"134 737 OFFCURVE",
"56 660 OFFCURVE",
"56 543 CURVE SMOOTH",
"56 185 LINE SMOOTH",
"56 68 OFFCURVE",
"134 -9 OFFCURVE",
"247 -9 CURVE SMOOTH"
);
},
{
closed = 1;
nodes = (
"193 82 OFFCURVE",
"155 122 OFFCURVE",
"155 184 CURVE SMOOTH",
"155 544 LINE SMOOTH",
"155 606 OFFCURVE",
"193 646 OFFCURVE",
"247 646 CURVE SMOOTH",
"300 646 OFFCURVE",
"338 606 OFFCURVE",
"338 544 CURVE SMOOTH",
"338 184 LINE SMOOTH",
"338 122 OFFCURVE",
"300 82 OFFCURVE",
"247 82 CURVE SMOOTH"
);
}
);
width = 493;
}
);
unicode = 0030;
},
{
glyphname = one;
lastChange = "2016-12-25 11:23:07 +0000";
layers = (
{
layerId = "262880E7-CFE1-4BDA-902E-E24798F3240A";
paths = (
{
closed = 1;
nodes = (
"201 0 LINE",
"201 721 LINE",
"179 721 LINE",
"179 0 LINE"
);
},
{
closed = 1;
nodes = (
"90 657 LINE",
"179 690 LINE",
"179 721 LINE",
"90 678 LINE"
);
}
);
width = 301;
},
{
layerId = "4E2227F3-52E4-4048-A8EE-327B486EF0A4";
paths = (
{
closed = 1;
nodes = (
"262 0 LINE",
"262 756 LINE",
"74 756 LINE",
"74 0 LINE"
);
},
{
closed = 1;
nodes = (
"27 581 LINE",
"74 584 LINE",
"74 756 LINE",
"27 725 LINE"
);
}
);
width = 292;
},
{
layerId = "0BD25E4B-8A11-4E34-A837-2DA28743BADD";
paths = (
{
closed = 1;
nodes = (
"231 0 LINE",
"231 728 LINE",
"132 728 LINE",
"132 0 LINE"
);
},
{
closed = 1;
nodes = (
"63 613 LINE",
"132 632 LINE",
"132 728 LINE",
"63 691 LINE"
);
}
);
width = 301;
}
);
unicode = 0031;
},
{
glyphname = two;
lastChange = "2016-12-25 11:23:07 +0000";
layers = (
{
layerId = "262880E7-CFE1-4BDA-902E-E24798F3240A";
paths = (
{
closed = 1;
nodes = (
"411 0 LINE",
"411 21 LINE",
"96 21 LINE",
"310 333 LINE SMOOTH",
"372 423 OFFCURVE",
"403 500 OFFCURVE",
"403 560 CURVE SMOOTH",
"403 661 OFFCURVE",
"335 729 OFFCURVE",
"234 729 CURVE SMOOTH",
"136 729 OFFCURVE",
"70 661 OFFCURVE",
"70 560 CURVE SMOOTH",
"70 515 LINE",
"93 515 LINE",
"93 561 LINE",
"92 649 OFFCURVE",
"148 708 OFFCURVE",
"234 708 CURVE SMOOTH",
"322 708 OFFCURVE",
"381 649 OFFCURVE",
"381 561 CURVE SMOOTH",
"381 505 OFFCURVE",
"351 433 OFFCURVE",
"291 345 CURVE SMOOTH",
"70 21 LINE",
"70 0 LINE"
);
}
);
width = 461;
},
{
layerId = "4E2227F3-52E4-4048-A8EE-327B486EF0A4";
paths = (
{
closed = 1;
nodes = (
"460 0 LINE",
"460 170 LINE",
"282 170 LINE",
"400 337 LINE",
"449 415 OFFCURVE",
"454 464 OFFCURVE",
"454 564 CURVE SMOOTH",
"454 691 OFFCURVE",
"363 765 OFFCURVE",
"237 765 CURVE SMOOTH",
"115 765 OFFCURVE",
"28 691 OFFCURVE",
"21 562 CURVE",
"21 496 LINE",
"211 496 LINE",
"211 545 LINE",
"211 574 OFFCURVE",
"222 594 OFFCURVE",
"238 594 CURVE SMOOTH",
"253 594 OFFCURVE",
"264 576 OFFCURVE",
"264 546 CURVE SMOOTH",
"264 496 OFFCURVE",
"251 456 OFFCURVE",
"200 387 CURVE",
"25 170 LINE",
"25 0 LINE"
);
}
);
width = 475;
},
{
layerId = "0BD25E4B-8A11-4E34-A837-2DA28743BADD";
paths = (
{
closed = 1;
nodes = (
"442 0 LINE",
"442 91 LINE",
"184 91 LINE",
"357 331 LINE",
"415 414 OFFCURVE",
"434 477 OFFCURVE",
"434 555 CURVE SMOOTH",
"434 672 OFFCURVE",
"361 736 OFFCURVE",
"240 736 CURVE SMOOTH",
"128 736 OFFCURVE",
"52 664 OFFCURVE",
"49 547 CURVE",
"49 499 LINE",
"150 499 LINE",
"150 534 LINE",
"149 599 OFFCURVE",
"185 642 OFFCURVE",
"240 642 CURVE SMOOTH",
"302 642 OFFCURVE",
"334 607 OFFCURVE",
"334 543 CURVE SMOOTH",
"334 491 OFFCURVE",
"312 438 OFFCURVE",
"254 360 CURVE",
"51 91 LINE",
"51 0 LINE"
);
}
);
width = 477;
}
);
unicode = 0032;
},
{
glyphname = three;
lastChange = "2016-12-25 11:23:07 +0000";
layers = (
{
layerId = "262880E7-CFE1-4BDA-902E-E24798F3240A";
paths = (
{
closed = 1;
nodes = (
"339 -8 OFFCURVE",
"405 60 OFFCURVE",
"405 163 CURVE SMOOTH",
"405 270 LINE SMOOTH",
"405 375 OFFCURVE",
"345 446 OFFCURVE",
"226 439 CURVE",
"227 433 LINE",
"408 700 LINE",
"408 721 LINE",
"75 721 LINE",
"75 700 LINE",
"382 700 LINE",
"196 428 LINE",
"207 417 LINE",
"217 418 OFFCURVE",
"227 419 OFFCURVE",
"238 419 CURVE SMOOTH",
"325 419 OFFCURVE",
"383 361 OFFCURVE",
"383 273 CURVE SMOOTH",
"383 160 LINE SMOOTH",
"383 72 OFFCURVE",
"325 13 OFFCURVE",
"238 13 CURVE SMOOTH",
"151 13 OFFCURVE",
"92 72 OFFCURVE",
"92 160 CURVE SMOOTH",
"92 207 LINE",
"70 207 LINE",
"70 163 LINE SMOOTH",
"70 60 OFFCURVE",
"137 -8 OFFCURVE",
"238 -8 CURVE SMOOTH"
);
}
);
width = 488;
},
{
layerId = "4E2227F3-52E4-4048-A8EE-327B486EF0A4";
paths = (
{
closed = 1;
nodes = (
"360 -8 OFFCURVE",
"445 64 OFFCURVE",
"445 185 CURVE SMOOTH",
"445 297 LINE SMOOTH",
"445 401 OFFCURVE",
"375 479 OFFCURVE",
"293 448 CURVE",
"293 413 LINE",
"445 586 LINE",
"445 756 LINE",
"54 756 LINE",
"54 586 LINE",
"219 586 LINE",
"91 450 LINE",
"192 345 LINE",
"208 366 OFFCURVE",
"217 373 OFFCURVE",
"233 373 CURVE SMOOTH",
"247 373 OFFCURVE",
"257 355 OFFCURVE",
"257 329 CURVE SMOOTH",
"257 197 LINE SMOOTH",
"257 171 OFFCURVE",
"247 152 OFFCURVE",
"233 152 CURVE SMOOTH",
"219 152 OFFCURVE",
"209 171 OFFCURVE",
"209 197 CURVE SMOOTH",
"209 248 LINE",
"21 248 LINE",
"21 185 LINE SMOOTH",
"21 64 OFFCURVE",
"106 -8 OFFCURVE",
"233 -8 CURVE SMOOTH"
);
}
);
width = 469;
},
{
layerId = "0BD25E4B-8A11-4E34-A837-2DA28743BADD";
paths = (
{
closed = 1;
nodes = (
"351 -8 OFFCURVE",
"426 60 OFFCURVE",
"426 171 CURVE SMOOTH",
"426 279 LINE SMOOTH",
"426 400 OFFCURVE",
"361 479 OFFCURVE",
"259 456 CURVE",
"260 418 LINE",
"427 637 LINE",
"427 728 LINE",
"67 728 LINE",
"67 637 LINE",
"308 637 LINE",
"149 433 LINE",
"202 378 LINE",
"215 389 OFFCURVE",
"224 393 OFFCURVE",
"238 393 CURVE SMOOTH",
"291 393 OFFCURVE",
"326 353 OFFCURVE",
"326 295 CURVE SMOOTH",
"326 175 LINE SMOOTH",
"326 117 OFFCURVE",
"291 78 OFFCURVE",
"238 78 CURVE SMOOTH",
"185 78 OFFCURVE",
"149 117 OFFCURVE",
"149 175 CURVE SMOOTH",
"149 223 LINE",
"49 223 LINE",
"49 171 LINE SMOOTH",
"49 60 OFFCURVE",
"125 -8 OFFCURVE",
"238 -8 CURVE SMOOTH"
);
}
);
width = 483;
}
);
unicode = 0033;
},
{
glyphname = four;
lastChange = "2016-12-25 11:23:07 +0000";
layers = (
{
layerId = "262880E7-CFE1-4BDA-902E-E24798F3240A";
paths = (
{
closed = 1;
nodes = (
"328 228 LINE",
"328 -7 LINE",
"350 -7 LINE",
"350 427 LINE",
"328 427 LINE"
);
},
{
closed = 1;
nodes = (
"63 228 LINE",
"277 721 LINE",
"253 721 LINE",
"40 228 LINE",
"40 208 LINE",
"403 208 LINE",
"403 228 LINE"
);
}
);
width = 443;
},
{
layerId = "4E2227F3-52E4-4048-A8EE-327B486EF0A4";
paths = (
{
closed = 1;
nodes = (
"266 354 LINE",
"266 -1 LINE",
"455 -1 LINE",
"455 512 LINE",
"297 512 LINE"
);
},
{
closed = 1;
nodes = (
"230 354 LINE",
"337 756 LINE",
"140 756 LINE",
"12 319 LINE",
"12 184 LINE",
"506 184 LINE",
"506 354 LINE"
);
}
);
width = 518;
},
{
layerId = "0BD25E4B-8A11-4E34-A837-2DA28743BADD";
paths = (
{
closed = 1;
nodes = (
"300 284 LINE",
"300 -4 LINE",
"400 -4 LINE",
"400 461 LINE",
"315 461 LINE"
);
},
{
closed = 1;
nodes = (
"142 284 LINE",
"306 728 LINE",
"201 728 LINE",
"28 267 LINE",
"28 194 LINE",
"452 194 LINE",
"452 284 LINE"
);
}
);
width = 480;
}
);
unicode = 0034;
},
{
glyphname = five;
lastChange = "2016-12-25 11:23:07 +0000";
layers = (
{
layerId = "262880E7-CFE1-4BDA-902E-E24798F3240A";
paths = (
{
closed = 1;
nodes = (
"318 -9 OFFCURVE",
"382 59 OFFCURVE",
"382 162 CURVE SMOOTH",
"382 270 LINE SMOOTH",
"382 373 OFFCURVE",
"318 441 OFFCURVE",
"222 441 CURVE SMOOTH",
"138 441 OFFCURVE",
"77 392 OFFCURVE",
"77 320 CURVE",
"77 316 LINE",
"96 316 LINE",
"96 321 LINE SMOOTH",
"96 380 OFFCURVE",
"151 420 OFFCURVE",
"222 420 CURVE SMOOTH",
"305 420 OFFCURVE",
"360 361 OFFCURVE",
"360 273 CURVE SMOOTH",
"360 158 LINE SMOOTH",
"360 71 OFFCURVE",
"305 12 OFFCURVE",
"222 12 CURVE SMOOTH",
"140 12 OFFCURVE",
"85 71 OFFCURVE",
"85 158 CURVE SMOOTH",
"85 163 LINE",
"63 163 LINE",
"63 162 LINE SMOOTH",
"63 59 OFFCURVE",
"127 -9 OFFCURVE",
"222 -9 CURVE SMOOTH"
);
},
{
closed = 1;
nodes = (
"96 320 LINE",
"98 700 LINE",
"379 700 LINE",
"379 721 LINE",
"76 721 LINE",
"77 320 LINE"
);
}
);
width = 429;
},
{
layerId = "4E2227F3-52E4-4048-A8EE-327B486EF0A4";
paths = (
{
closed = 1;
nodes = (
"349 -9 OFFCURVE",
"434 63 OFFCURVE",
"434 184 CURVE SMOOTH",
"434 281 LINE SMOOTH",
"434 403 OFFCURVE",
"375 478 OFFCURVE",
"280 478 CURVE SMOOTH",
"170 478 OFFCURVE",
"139 378 OFFCURVE",
"139 289 CURVE",
"139 281 LINE",
"196 281 LINE",
"196 283 LINE SMOOTH",
"196 303 OFFCURVE",
"206 316 OFFCURVE",
"221 316 CURVE SMOOTH",
"236 316 OFFCURVE",
"246 298 OFFCURVE",
"246 271 CURVE SMOOTH",
"246 197 LINE SMOOTH",
"246 170 OFFCURVE",
"236 152 OFFCURVE",
"221 152 CURVE SMOOTH",
"207 152 OFFCURVE",
"197 170 OFFCURVE",
"197 197 CURVE SMOOTH",
"197 198 LINE",
"9 198 LINE",
"9 184 LINE SMOOTH",
"9 63 OFFCURVE",
"92 -9 OFFCURVE",
"221 -9 CURVE SMOOTH"
);
},
{
closed = 1;
nodes = (
"196 279 LINE",
"196 586 LINE",
"432 586 LINE",
"432 756 LINE",
"8 756 LINE",
"8 279 LINE"
);
}
);
width = 443;
},
{
layerId = "0BD25E4B-8A11-4E34-A837-2DA28743BADD";
paths = (
{
closed = 1;
nodes = (
"332 -9 OFFCURVE",
"406 60 OFFCURVE",
"406 171 CURVE SMOOTH",
"406 271 LINE SMOOTH",
"406 382 OFFCURVE",
"345 452 OFFCURVE",
"249 452 CURVE SMOOTH",
"153 452 OFFCURVE",
"106 399 OFFCURVE",
"106 319 CURVE",
"106 296 LINE",
"143 296 LINE",
"143 299 LINE SMOOTH",
"143 339 OFFCURVE",
"177 366 OFFCURVE",
"222 366 CURVE SMOOTH",
"273 366 OFFCURVE",
"307 326 OFFCURVE",
"307 269 CURVE SMOOTH",
"307 178 LINE SMOOTH",
"307 120 OFFCURVE",
"273 81 OFFCURVE",
"222 81 CURVE SMOOTH",
"171 81 OFFCURVE",
"137 120 OFFCURVE",
"137 178 CURVE SMOOTH",
"137 178 LINE",
"38 178 LINE",
"38 174 LINE SMOOTH",
"38 63 OFFCURVE",
"111 -9 OFFCURVE",
"222 -9 CURVE SMOOTH"
);
},
{
closed = 1;
nodes = (
"143 297 LINE",
"144 637 LINE",
"404 637 LINE",
"404 728 LINE",
"44 728 LINE",
"45 297 LINE"
);
}
);
width = 436;
}
);
unicode = 0035;
},
{
glyphname = six;
lastChange = "2016-12-25 11:23:07 +0000";
layers = (
{
layerId = "262880E7-CFE1-4BDA-902E-E24798F3240A";
paths = (
{
closed = 1;
nodes = (
"361 -8 OFFCURVE",
"427 60 OFFCURVE",
"427 163 CURVE SMOOTH",
"427 270 LINE SMOOTH",
"427 373 OFFCURVE",
"361 441 OFFCURVE",
"259 441 CURVE SMOOTH",
"189 441 OFFCURVE",
"135 407 OFFCURVE",
"109 350 CURVE",
"112 350 LINE",
"112 561 LINE SMOOTH",
"112 649 OFFCURVE",
"171 708 OFFCURVE",
"259 708 CURVE SMOOTH",
"347 708 OFFCURVE",
"405 649 OFFCURVE",
"405 561 CURVE SMOOTH",
"405 515 LINE",
"427 515 LINE",
"427 558 LINE SMOOTH",
"427 661 OFFCURVE",
"361 729 OFFCURVE",
"259 729 CURVE SMOOTH",
"157 729 OFFCURVE",
"90 661 OFFCURVE",
"90 558 CURVE SMOOTH",
"90 163 LINE SMOOTH",
"90 60 OFFCURVE",
"157 -8 OFFCURVE",
"259 -8 CURVE SMOOTH"
);
},
{
closed = 1;
nodes = (
"171 13 OFFCURVE",
"112 72 OFFCURVE",
"112 160 CURVE SMOOTH",
"112 273 LINE SMOOTH",
"112 361 OFFCURVE",
"171 420 OFFCURVE",
"259 420 CURVE SMOOTH",
"347 420 OFFCURVE",
"405 361 OFFCURVE",
"405 273 CURVE SMOOTH",
"405 160 LINE SMOOTH",
"405 72 OFFCURVE",
"347 13 OFFCURVE",
"259 13 CURVE SMOOTH"
);
}
);
width = 497;
},
{
layerId = "4E2227F3-52E4-4048-A8EE-327B486EF0A4";
paths = (
{
closed = 1;
nodes = (
"366 -9 OFFCURVE",
"451 63 OFFCURVE",
"451 183 CURVE SMOOTH",
"451 281 LINE SMOOTH",
"451 419 OFFCURVE",
"375 478 OFFCURVE",
"295 478 CURVE SMOOTH",
"181 478 OFFCURVE",
"175 371 OFFCURVE",
"176 354 CURVE",
"215 354 LINE",
"215 555 LINE SMOOTH",
"215 581 OFFCURVE",
"225 600 OFFCURVE",
"239 600 CURVE SMOOTH",
"253 600 OFFCURVE",
"263 581 OFFCURVE",
"263 555 CURVE SMOOTH",
"263 510 LINE",
"451 510 LINE",
"451 568 LINE SMOOTH",
"451 689 OFFCURVE",
"366 765 OFFCURVE",
"239 765 CURVE SMOOTH",
"112 765 OFFCURVE",
"27 689 OFFCURVE",
"27 568 CURVE SMOOTH",
"27 183 LINE SMOOTH",
"27 63 OFFCURVE",
"112 -9 OFFCURVE",
"239 -9 CURVE SMOOTH"
);
},
{
closed = 1;
nodes = (
"225 152 OFFCURVE",
"215 169 OFFCURVE",
"215 196 CURVE SMOOTH",
"215 273 LINE SMOOTH",
"215 300 OFFCURVE",
"225 318 OFFCURVE",
"239 318 CURVE SMOOTH",
"253 318 OFFCURVE",
"263 300 OFFCURVE",
"263 273 CURVE SMOOTH",
"263 196 LINE SMOOTH",
"263 169 OFFCURVE",
"253 152 OFFCURVE",
"239 152 CURVE SMOOTH"
);
}
);
width = 472;
},
{
layerId = "0BD25E4B-8A11-4E34-A837-2DA28743BADD";
paths = (
{
closed = 1;
nodes = (
"365 -8 OFFCURVE",
"440 60 OFFCURVE",
"440 170 CURVE SMOOTH",
"440 271 LINE SMOOTH",
"440 389 OFFCURVE",
"370 452 OFFCURVE",
"278 452 CURVE SMOOTH",
"187 452 OFFCURVE",
"156 385 OFFCURVE",
"142 348 CURVE",
"162 348 LINE",
"162 551 LINE SMOOTH",
"162 609 OFFCURVE",
"198 648 OFFCURVE",
"252 648 CURVE SMOOTH",
"305 648 OFFCURVE",
"341 609 OFFCURVE",
"341 551 CURVE SMOOTH",
"341 506 LINE",
"440 506 LINE",
"440 556 LINE SMOOTH",
"440 666 OFFCURVE",
"365 736 OFFCURVE",
"252 736 CURVE SMOOTH",
"138 736 OFFCURVE",
"63 666 OFFCURVE",
"63 556 CURVE SMOOTH",
"63 170 LINE SMOOTH",
"63 60 OFFCURVE",
"138 -8 OFFCURVE",
"252 -8 CURVE SMOOTH"
);
},
{
closed = 1;
nodes = (
"198 78 OFFCURVE",
"162 116 OFFCURVE",
"162 175 CURVE SMOOTH",
"162 270 LINE SMOOTH",
"162 327 OFFCURVE",
"198 367 OFFCURVE",
"252 367 CURVE SMOOTH",
"305 367 OFFCURVE",
"341 327 OFFCURVE",
"341 270 CURVE SMOOTH",
"341 175 LINE SMOOTH",
"341 116 OFFCURVE",
"305 78 OFFCURVE",
"252 78 CURVE SMOOTH"
);
}
);
width = 489;
}
);
unicode = 0036;
},
{
glyphname = seven;
lastChange = "2016-12-25 11:23:07 +0000";
layers = (
{
layerId = "262880E7-CFE1-4BDA-902E-E24798F3240A";
paths = (
{
closed = 1;
nodes = (
"143 0 LINE",
"371 700 LINE",
"371 721 LINE",
"30 721 LINE",
"30 700 LINE",
"347 700 LINE",
"118 0 LINE"
);
}
);
width = 401;
},
{
layerId = "4E2227F3-52E4-4048-A8EE-327B486EF0A4";
paths = (
{
closed = 1;
nodes = (
"235 0 LINE",
"402 586 LINE",
"402 756 LINE",
"9 756 LINE",
"9 586 LINE",
"204 586 LINE",
"39 0 LINE"
);
}
);
width = 411;
},
{
layerId = "0BD25E4B-8A11-4E34-A837-2DA28743BADD";
paths = (
{
closed = 1;
nodes = (
"187 0 LINE",
"386 637 LINE",
"386 728 LINE",
"21 728 LINE",
"21 637 LINE",
"281 637 LINE",
"82 0 LINE"
);
}
);
width = 407;
}
);
unicode = 0037;
},
{
glyphname = eight;
lastChange = "2016-12-25 11:23:07 +0000";
layers = (
{
layerId = "262880E7-CFE1-4BDA-902E-E24798F3240A";
paths = (
{
closed = 1;
nodes = (
"353 -19 OFFCURVE",
"420 56 OFFCURVE",
"420 166 CURVE SMOOTH",
"420 221 LINE SMOOTH",
"420 331 OFFCURVE",
"353 406 OFFCURVE",
"251 406 CURVE SMOOTH",
"149 406 OFFCURVE",
"80 331 OFFCURVE",
"80 221 CURVE SMOOTH",
"80 166 LINE SMOOTH",
"80 56 OFFCURVE",
"149 -19 OFFCURVE",
"251 -19 CURVE SMOOTH"
);
},
{
closed = 1;
nodes = (
"162 1 OFFCURVE",
"102 67 OFFCURVE",
"102 166 CURVE SMOOTH",
"102 221 LINE SMOOTH",
"102 321 OFFCURVE",
"162 387 OFFCURVE",
"251 387 CURVE SMOOTH",
"340 387 OFFCURVE",
"398 321 OFFCURVE",
"398 221 CURVE SMOOTH",
"398 166 LINE SMOOTH",
"398 67 OFFCURVE",
"340 1 OFFCURVE",
"251 1 CURVE SMOOTH"
);
},
{
closed = 1;
nodes = (
"353 387 OFFCURVE",
"418 453 OFFCURVE",
"418 550 CURVE SMOOTH",
"418 566 LINE SMOOTH",
"418 663 OFFCURVE",
"353 729 OFFCURVE",
"251 729 CURVE SMOOTH",
"149 729 OFFCURVE",
"82 663 OFFCURVE",
"82 566 CURVE SMOOTH",
"82 550 LINE SMOOTH",
"82 453 OFFCURVE",
"149 387 OFFCURVE",
"251 387 CURVE SMOOTH"
);
},
{
closed = 1;
nodes = (
"162 407 OFFCURVE",
"104 465 OFFCURVE",
"104 550 CURVE SMOOTH",
"104 566 LINE SMOOTH",
"104 653 OFFCURVE",
"162 710 OFFCURVE",
"251 710 CURVE SMOOTH",
"340 710 OFFCURVE",
"396 653 OFFCURVE",
"396 566 CURVE SMOOTH",
"396 550 LINE SMOOTH",
"396 465 OFFCURVE",
"340 407 OFFCURVE",
"251 407 CURVE SMOOTH"
);
}
);
width = 500;
},
{
layerId = "4E2227F3-52E4-4048-A8EE-327B486EF0A4";
paths = (
{
closed = 1;
nodes = (
"391 -10 OFFCURVE",
"477 73 OFFCURVE",
"477 206 CURVE SMOOTH",
"477 258 LINE SMOOTH",
"477 452 OFFCURVE",
"286 434 OFFCURVE",
"251 434 CURVE SMOOTH",
"216 434 OFFCURVE",
"25 452 OFFCURVE",
"25 258 CURVE SMOOTH",
"25 208 LINE SMOOTH",
"25 73 OFFCURVE",
"111 -10 OFFCURVE",
"251 -10 CURVE SMOOTH"
);
},
{
closed = 1;
nodes = (
"227 152 OFFCURVE",
"213 177 OFFCURVE",
"213 217 CURVE SMOOTH",
"213 254 LINE SMOOTH",
"213 294 OFFCURVE",
"227 319 OFFCURVE",
"251 319 CURVE",
"275 319 OFFCURVE",
"289 294 OFFCURVE",
"289 254 CURVE SMOOTH",
"289 217 LINE SMOOTH",
"289 177 OFFCURVE",
"275 152 OFFCURVE",
"251 152 CURVE SMOOTH"
);
},
{
closed = 1;
nodes = (
"351 325 OFFCURVE",
"478 375 OFFCURVE",
"478 529 CURVE SMOOTH",
"478 569 LINE SMOOTH",
"478 701 OFFCURVE",
"392 765 OFFCURVE",
"251 765 CURVE SMOOTH",
"111 765 OFFCURVE",
"24 702 OFFCURVE",
"24 569 CURVE SMOOTH",
"24 530 LINE SMOOTH",
"24 375 OFFCURVE",
"141 325 OFFCURVE",
"251 325 CURVE SMOOTH"
);
},
{
closed = 1;
nodes = (
"227 454 OFFCURVE",
"212 478 OFFCURVE",
"212 517 CURVE SMOOTH",
"212 540 LINE SMOOTH",
"212 579 OFFCURVE",
"227 603 OFFCURVE",
"251 603 CURVE SMOOTH",
"275 603 OFFCURVE",
"290 579 OFFCURVE",
"290 540 CURVE SMOOTH",
"290 517 LINE SMOOTH",
"290 478 OFFCURVE",
"275 454 OFFCURVE",
"251 454 CURVE SMOOTH"
);
}
);
width = 502;
},
{
layerId = "0BD25E4B-8A11-4E34-A837-2DA28743BADD";
paths = (
{
closed = 1;
nodes = (
"377 -15 OFFCURVE",
"455 63 OFFCURVE",
"455 182 CURVE SMOOTH",
"455 235 LINE SMOOTH",
"455 383 OFFCURVE",
"328 414 OFFCURVE",
"256 414 CURVE SMOOTH",
"183 414 OFFCURVE",
"56 383 OFFCURVE",
"56 235 CURVE SMOOTH",
"56 183 LINE SMOOTH",
"56 63 OFFCURVE",
"134 -15 OFFCURVE",
"256 -15 CURVE SMOOTH"
);
},
{
closed = 1;
nodes = (
"195 79 OFFCURVE",
"155 126 OFFCURVE",
"155 195 CURVE SMOOTH",
"155 234 LINE SMOOTH",
"155 305 OFFCURVE",
"195 349 OFFCURVE",
"256 349 CURVE",
"316 349 OFFCURVE",
"355 305 OFFCURVE",
"355 234 CURVE SMOOTH",
"355 195 LINE SMOOTH",
"355 126 OFFCURVE",
"316 79 OFFCURVE",
"256 79 CURVE SMOOTH"
);
},
{
closed = 1;
nodes = (
"359 353 OFFCURVE",
"444 410 OFFCURVE",
"444 534 CURVE SMOOTH",
"444 560 LINE SMOOTH",
"444 673 OFFCURVE",
"378 736 OFFCURVE",
"256 736 CURVE SMOOTH",
"134 736 OFFCURVE",
"66 673 OFFCURVE",
"66 560 CURVE SMOOTH",
"66 534 LINE SMOOTH",
"66 410 OFFCURVE",
"148 353 OFFCURVE",
"256 353 CURVE SMOOTH"
);
},
{
closed = 1;
nodes = (
"195 429 OFFCURVE",
"166 469 OFFCURVE",
"166 532 CURVE SMOOTH",
"166 538 LINE SMOOTH",
"166 602 OFFCURVE",
"195 642 OFFCURVE",
"256 642 CURVE SMOOTH",
"316 642 OFFCURVE",
"344 602 OFFCURVE",
"344 538 CURVE SMOOTH",
"344 532 LINE SMOOTH",
"344 469 OFFCURVE",
"316 429 OFFCURVE",
"256 429 CURVE SMOOTH"
);
}
);
width = 511;
}
);
unicode = 0038;
},
{
glyphname = colon;
lastChange = "2016-12-25 11:23:07 +0000";
layers = (
{
layerId = "262880E7-CFE1-4BDA-902E-E24798F3240A";
paths = (
{
closed = 1;
nodes = (
"177 361 OFFCURVE",
"196 379 OFFCURVE",
"196 403 CURVE SMOOTH",
"196 425 OFFCURVE",
"177 444 OFFCURVE",
"155 444 CURVE SMOOTH",
"134 444 OFFCURVE",
"115 425 OFFCURVE",
"115 403 CURVE SMOOTH",
"115 379 OFFCURVE",
"133 361 OFFCURVE",
"155 361 CURVE SMOOTH"
);
},
{
closed = 1;
nodes = (
"177 7 OFFCURVE",
"196 26 OFFCURVE",
"196 49 CURVE SMOOTH",
"196 72 OFFCURVE",
"177 90 OFFCURVE",
"155 90 CURVE SMOOTH",
"134 90 OFFCURVE",
"115 72 OFFCURVE",
"115 49 CURVE SMOOTH",
"115 26 OFFCURVE",
"133 7 OFFCURVE",
"155 7 CURVE SMOOTH"
);
}
);
width = 311;
},
{
layerId = "4E2227F3-52E4-4048-A8EE-327B486EF0A4";
paths = (
{
closed = 1;
nodes = (
"223 349 OFFCURVE",
"266 397 OFFCURVE",
"266 457 CURVE SMOOTH",
"266 516 OFFCURVE",
"214 563 OFFCURVE",
"161 563 CURVE SMOOTH",
"108 563 OFFCURVE",
"56 516 OFFCURVE",
"56 457 CURVE SMOOTH",
"56 397 OFFCURVE",
"99 349 OFFCURVE",
"161 349 CURVE SMOOTH"
);
},
{
closed = 1;
nodes = (
"223 1 OFFCURVE",
"266 49 OFFCURVE",
"266 108 CURVE SMOOTH",
"266 167 OFFCURVE",
"214 215 OFFCURVE",
"161 215 CURVE SMOOTH",
"108 215 OFFCURVE",
"56 167 OFFCURVE",
"56 108 CURVE SMOOTH",
"56 49 OFFCURVE",
"99 1 OFFCURVE",
"161 1 CURVE SMOOTH"
);
}
);
width = 318;
},
{
layerId = "0BD25E4B-8A11-4E34-A837-2DA28743BADD";
paths = (
{
closed = 1;
nodes = (
"198 350 OFFCURVE",
"229 383 OFFCURVE",
"229 422 CURVE SMOOTH",
"229 462 OFFCURVE",
"194 494 OFFCURVE",
"158 494 CURVE SMOOTH",
"122 494 OFFCURVE",
"87 462 OFFCURVE",
"87 422 CURVE SMOOTH",
"87 383 OFFCURVE",
"117 350 OFFCURVE",
"158 350 CURVE SMOOTH"
);
},
{
closed = 1;
nodes = (
"198 4 OFFCURVE",
"229 36 OFFCURVE",
"229 77 CURVE SMOOTH",
"229 115 OFFCURVE",
"194 147 OFFCURVE",
"158 147 CURVE SMOOTH",
"122 147 OFFCURVE",
"87 115 OFFCURVE",
"87 77 CURVE SMOOTH",
"87 36 OFFCURVE",
"117 4 OFFCURVE",
"158 4 CURVE SMOOTH"
);
}
);
width = 314;
}
);
leftKerningGroup = colon;
unicode = 003A;
},
{
glyphname = comma;
lastChange = "2016-12-25 11:23:07 +0000";
layers = (
{
layerId = "262880E7-CFE1-4BDA-902E-E24798F3240A";
paths = (
{
closed = 1;
nodes = (
"102 -68 LINE",
"156 158 LINE",
"134 158 LINE",
"80 -68 LINE"
);
}
);
width = 256;
},
{
layerId = "4E2227F3-52E4-4048-A8EE-327B486EF0A4";
paths = (
{
closed = 1;
nodes = (
"146 -116 LINE",
"209 172 LINE",
"41 172 LINE",
"24 -116 LINE"
);
}
);
width = 233;
},
{
layerId = "0BD25E4B-8A11-4E34-A837-2DA28743BADD";
paths = (
{
closed = 1;
nodes = (
"123 -89 LINE",
"181 162 LINE",
"91 162 LINE",
"54 -89 LINE"
);
}
);
width = 245;
}
);
leftKerningGroup = comma;
rightKerningGroup = comma;
unicode = 002C;
},
{
glyphname = exclam;
lastChange = "2016-12-25 11:23:07 +0000";
layers = (
{
layerId = "262880E7-CFE1-4BDA-902E-E24798F3240A";
paths = (
{
closed = 1;
nodes = (
"160 226 LINE",
"160 721 LINE",
"138 721 LINE",
"138 226 LINE"
);
},
{
closed = 1;
nodes = (
"168 5 OFFCURVE",
"187 24 OFFCURVE",
"187 47 CURVE SMOOTH",
"187 70 OFFCURVE",
"168 88 OFFCURVE",
"146 88 CURVE SMOOTH",
"125 88 OFFCURVE",
"106 70 OFFCURVE",
"106 47 CURVE SMOOTH",
"106 24 OFFCURVE",
"124 5 OFFCURVE",
"146 5 CURVE SMOOTH"
);
}
);
width = 297;
},
{
layerId = "4E2227F3-52E4-4048-A8EE-327B486EF0A4";
paths = (
{
closed = 1;
nodes = (
"225 265 LINE",
"245 756 LINE",
"57 756 LINE",
"77 265 LINE"
);
},
{
closed = 1;
nodes = (
"212 1 OFFCURVE",
"255 49 OFFCURVE",
"255 108 CURVE SMOOTH",
"255 167 OFFCURVE",
"203 214 OFFCURVE",
"150 214 CURVE SMOOTH",
"97 214 OFFCURVE",
"45 167 OFFCURVE",
"45 108 CURVE SMOOTH",
"45 49 OFFCURVE",
"88 1 OFFCURVE",
"150 1 CURVE SMOOTH"
);
}
);
width = 302;
},
{
layerId = "0BD25E4B-8A11-4E34-A837-2DA28743BADD";
paths = (
{
closed = 1;
nodes = (
"190 242 LINE",
"200 728 LINE",
"100 728 LINE",
"110 242 LINE"
);
},
{
closed = 1;
nodes = (
"189 3 OFFCURVE",
"219 35 OFFCURVE",
"219 76 CURVE SMOOTH",
"219 114 OFFCURVE",
"184 146 OFFCURVE",
"148 146 CURVE SMOOTH",
"112 146 OFFCURVE",
"78 114 OFFCURVE",
"78 76 CURVE SMOOTH",
"78 35 OFFCURVE",
"107 3 OFFCURVE",
"148 3 CURVE SMOOTH"
);
}
);
width = 299;
}
);
unicode = 0021;
},
{
glyphname = period;
lastChange = "2016-12-25 11:23:07 +0000";
layers = (
{
layerId = "262880E7-CFE1-4BDA-902E-E24798F3240A";
paths = (
{
closed = 1;
nodes = (
"177 7 OFFCURVE",
"196 26 OFFCURVE",
"196 49 CURVE SMOOTH",
"196 72 OFFCURVE",
"177 90 OFFCURVE",
"155 90 CURVE SMOOTH",
"134 90 OFFCURVE",
"115 72 OFFCURVE",
"115 49 CURVE SMOOTH",
"115 26 OFFCURVE",
"133 7 OFFCURVE",
"155 7 CURVE SMOOTH"
);
}
);
width = 313;
},
{
layerId = "4E2227F3-52E4-4048-A8EE-327B486EF0A4";
paths = (
{
closed = 1;
nodes = (
"211 -7 OFFCURVE",
"254 41 OFFCURVE",
"254 100 CURVE SMOOTH",
"254 160 OFFCURVE",
"202 207 OFFCURVE",
"149 207 CURVE SMOOTH",
"96 207 OFFCURVE",
"44 160 OFFCURVE",
"44 100 CURVE SMOOTH",
"44 41 OFFCURVE",
"87 -7 OFFCURVE",
"149 -7 CURVE SMOOTH"
);
}
);
width = 308;
},
{
layerId = "0BD25E4B-8A11-4E34-A837-2DA28743BADD";
paths = (
{
closed = 1;
nodes = (
"193 0 OFFCURVE",
"223 33 OFFCURVE",
"223 73 CURVE SMOOTH",
"223 112 OFFCURVE",
"189 144 OFFCURVE",
"152 144 CURVE SMOOTH",
"116 144 OFFCURVE",
"82 112 OFFCURVE",
"82 73 CURVE SMOOTH",
"82 33 OFFCURVE",
"112 0 OFFCURVE",
"152 0 CURVE SMOOTH"
);
}
);
width = 311;
}
);
leftKerningGroup = comma;
rightKerningGroup = comma;
unicode = 002E;
},
{
glyphname = question;
lastChange = "2016-12-25 11:23:07 +0000";
layers = (
{
layerId = "262880E7-CFE1-4BDA-902E-E24798F3240A";
paths = (
{
closed = 1;
nodes = (
"197 190 LINE",
"197 279 LINE",
"197 383 OFFCURVE",
"356 390 OFFCURVE",
"356 563 CURVE SMOOTH",
"356 664 OFFCURVE",
"294 730 OFFCURVE",
"202 730 CURVE SMOOTH",
"109 730 OFFCURVE",
"46 664 OFFCURVE",
"46 567 CURVE SMOOTH",
"46 515 LINE",
"68 515 LINE",
"68 567 LINE SMOOTH",
"68 652 OFFCURVE",
"122 709 OFFCURVE",
"202 709 CURVE SMOOTH",
"281 709 OFFCURVE",
"334 652 OFFCURVE",
"334 566 CURVE SMOOTH",
"334 407 OFFCURVE",
"173 406 OFFCURVE",
"173 279 CURVE",
"173 190 LINE"
);
},
{
closed = 1;
nodes = (
"209 5 OFFCURVE",
"228 24 OFFCURVE",
"228 47 CURVE SMOOTH",
"228 70 OFFCURVE",
"209 88 OFFCURVE",
"187 88 CURVE SMOOTH",
"166 88 OFFCURVE",
"147 70 OFFCURVE",
"147 47 CURVE SMOOTH",
"147 24 OFFCURVE",
"165 5 OFFCURVE",
"187 5 CURVE SMOOTH"
);
}
);
width = 405;
},
{
layerId = "4E2227F3-52E4-4048-A8EE-327B486EF0A4";
paths = (
{
closed = 1;
nodes = (
"321 250 LINE",
"321 274 LINE",
"321 369 OFFCURVE",
"473 369 OFFCURVE",
"473 547 CURVE SMOOTH",
"473 679 OFFCURVE",
"386 767 OFFCURVE",
"249 767 CURVE SMOOTH",
"107 767 OFFCURVE",
"10 672 OFFCURVE",
"10 533 CURVE SMOOTH",
"10 518 LINE",
"198 509 LINE",
"198 533 LINE SMOOTH",
"198 569 OFFCURVE",
"214 596 OFFCURVE",
"244 596 CURVE SMOOTH",
"268 596 OFFCURVE",
"283 574 OFFCURVE",
"283 538 CURVE SMOOTH",
"283 449 OFFCURVE",
"135 441 OFFCURVE",
"135 286 CURVE",
"135 250 LINE"
);
},
{
closed = 1;
nodes = (
"288 -5 OFFCURVE",
"332 40 OFFCURVE",
"332 94 CURVE SMOOTH",
"332 149 OFFCURVE",
"287 193 OFFCURVE",
"236 193 CURVE SMOOTH",
"184 193 OFFCURVE",
"140 149 OFFCURVE",
"140 93 CURVE SMOOTH",
"140 40 OFFCURVE",
"182 -5 OFFCURVE",
"235 -5 CURVE SMOOTH"
);
}
);
width = 483;
},
{
layerId = "0BD25E4B-8A11-4E34-A837-2DA28743BADD";
paths = (
{
closed = 1;
nodes = (
"255 216 LINE",
"255 273 LINE",
"255 372 OFFCURVE",
"411 374 OFFCURVE",
"411 548 CURVE SMOOTH",
"411 663 OFFCURVE",
"337 737 OFFCURVE",
"224 737 CURVE SMOOTH",
"108 737 OFFCURVE",
"29 659 OFFCURVE",
"29 543 CURVE SMOOTH",
"29 510 LINE",
"129 506 LINE",
"129 543 LINE SMOOTH",
"129 605 OFFCURVE",
"165 646 OFFCURVE",
"222 646 CURVE SMOOTH",
"275 646 OFFCURVE",
"310 607 OFFCURVE",
"310 545 CURVE SMOOTH",
"310 422 OFFCURVE",
"155 417 OFFCURVE",
"155 279 CURVE",
"155 216 LINE"
);
},
{
closed = 1;
nodes = (
"246 0 OFFCURVE",
"277 31 OFFCURVE",
"277 69 CURVE SMOOTH",
"277 105 OFFCURVE",
"245 136 OFFCURVE",
"210 136 CURVE SMOOTH",
"174 136 OFFCURVE",
"144 105 OFFCURVE",
"144 69 CURVE SMOOTH",
"144 31 OFFCURVE",
"173 0 OFFCURVE",
"209 0 CURVE SMOOTH"
);
}
);
width = 441;
}
);
unicode = 003F;
},
{
glyphname = quotedbl;
lastChange = "2016-12-25 11:23:07 +0000";
layers = (
{
layerId = "262880E7-CFE1-4BDA-902E-E24798F3240A";
paths = (
{
closed = 1;
nodes = (
"171 515 LINE",
"174 713 LINE",
"148 713 LINE",
"151 515 LINE"
);
},
{
closed = 1;
nodes = (
"83 515 LINE",
"86 713 LINE",
"60 713 LINE",
"63 515 LINE"
);
}
);
width = 234;
},
{
layerId = "4E2227F3-52E4-4048-A8EE-327B486EF0A4";
paths = (
{
closed = 1;
nodes = (
"388 500 LINE",
"408 755 LINE",
"230 755 LINE",
"250 500 LINE"
);
},
{
closed = 1;
nodes = (
"162 500 LINE",
"182 755 LINE",
"4 755 LINE",
"24 500 LINE"
);
}
);
width = 412;
},
{
layerId = "0BD25E4B-8A11-4E34-A837-2DA28743BADD";
paths = (
{
closed = 1;
nodes = (
"274 501 LINE",
"285 724 LINE",
"188 724 LINE",
"199 501 LINE"
);
},
{
closed = 1;
nodes = (
"122 501 LINE",
"133 724 LINE",
"36 724 LINE",
"47 501 LINE"
);
}
);
width = 321;
}
);
leftKerningGroup = quotedbl;
leftMetricsKey = "=quotesingle";
rightKerningGroup = quotedbl;
rightMetricsKey = "=quotesingle";
unicode = 0022;
},
{
glyphname = quotesingle;
lastChange = "2016-12-25 11:23:07 +0000";
layers = (
{
layerId = "262880E7-CFE1-4BDA-902E-E24798F3240A";
paths = (
{
closed = 1;
nodes = (
"83 522 LINE",
"86 718 LINE",
"60 718 LINE",
"63 522 LINE"
);
}
);
width = 146;
},
{
layerId = "4E2227F3-52E4-4048-A8EE-327B486EF0A4";
paths = (
{
closed = 1;
nodes = (
"172 501 LINE",
"192 756 LINE",
"4 756 LINE",
"24 501 LINE"
);
}
);
width = 196;
},
{
layerId = "0BD25E4B-8A11-4E34-A837-2DA28743BADD";
paths = (
{
closed = 1;
nodes = (
"127 506 LINE",
"137 726 LINE",
"36 726 LINE",
"47 506 LINE"
);
}
);
width = 173;
}
);
leftKerningGroup = quotedbl;
leftMetricsKey = "=n-20";
rightKerningGroup = quotedbl;
rightMetricsKey = "=|n-20";
unicode = 0027;
},
{
glyphname = semicolon;
lastChange = "2016-12-25 11:23:07 +0000";
layers = (
{
layerId = "262880E7-CFE1-4BDA-902E-E24798F3240A";
paths = (
{
closed = 1;
nodes = (
"133 -62 LINE",
"168 151 LINE",
"144 151 LINE",
"112 -62 LINE"
);
},
{
closed = 1;
nodes = (
"174 381 OFFCURVE",
"193 400 OFFCURVE",
"193 423 CURVE",
"193 446 OFFCURVE",
"174 464 OFFCURVE",
"152 464 CURVE SMOOTH",
"131 464 OFFCURVE",
"112 446 OFFCURVE",
"112 423 CURVE SMOOTH",
"112 400 OFFCURVE",
"130 381 OFFCURVE",
"152 381 CURVE SMOOTH"
);
}
);
width = 298;
},
{
layerId = "4E2227F3-52E4-4048-A8EE-327B486EF0A4";
paths = (
{
closed = 1;
nodes = (
"154 -115 LINE",
"217 172 LINE",
"49 172 LINE",
"32 -115 LINE"
);
},
{
closed = 1;
nodes = (
"191 321 OFFCURVE",
"234 370 OFFCURVE",
"234 429 CURVE SMOOTH",
"234 488 OFFCURVE",
"182 536 OFFCURVE",
"129 536 CURVE SMOOTH",
"76 536 OFFCURVE",
"24 488 OFFCURVE",
"24 429 CURVE SMOOTH",
"24 370 OFFCURVE",
"67 321 OFFCURVE",
"129 321 CURVE SMOOTH"
);
}
);
width = 258;
},
{
layerId = "0BD25E4B-8A11-4E34-A837-2DA28743BADD";
paths = (
{
closed = 1;
nodes = (
"143 -86 LINE",
"191 159 LINE",
"100 159 LINE",
"75 -86 LINE"
);
},
{
closed = 1;
nodes = (
"182 348 OFFCURVE",
"212 381 OFFCURVE",
"212 421 CURVE",
"212 460 OFFCURVE",
"178 492 OFFCURVE",
"141 492 CURVE SMOOTH",
"105 492 OFFCURVE",
"71 460 OFFCURVE",
"71 421 CURVE SMOOTH",
"71 381 OFFCURVE",
"101 348 OFFCURVE",
"141 348 CURVE SMOOTH"
);
}
);
width = 279;
}
);
leftKerningGroup = colon;
unicode = 003B;
},
{
glyphname = slash;
lastChange = "2016-12-25 11:23:07 +0000";
layers = (
{
layerId = "262880E7-CFE1-4BDA-902E-E24798F3240A";
paths = (
{
closed = 1;
nodes = (
"22 0 LINE",
"218 721 LINE",
"196 721 LINE",
"0 0 LINE"
);
}
);
width = 218;
},
{
layerId = "4E2227F3-52E4-4048-A8EE-327B486EF0A4";
paths = (
{
closed = 1;
nodes = (
"188 0 LINE",
"442 756 LINE",
"254 756 LINE",
"0 0 LINE"
);
}
);
width = 442;
},
{
layerId = "0BD25E4B-8A11-4E34-A837-2DA28743BADD";
paths = (
{
closed = 1;
nodes = (
"99 0 LINE",
"323 728 LINE",
"223 728 LINE",
"0 0 LINE"
);
}
);
width = 323;
}
);
unicode = 002F;
},
{
glyphname = emdash;
lastChange = "2016-12-25 11:23:07 +0000";
layers = (
{
layerId = "262880E7-CFE1-4BDA-902E-E24798F3240A";
paths = (
{
closed = 1;
nodes = (
"423 259 LINE",
"423 280 LINE",
"23 280 LINE",
"23 259 LINE"
);
}
);
width = 446;
},
{
layerId = "4E2227F3-52E4-4048-A8EE-327B486EF0A4";
paths = (
{
closed = 1;
nodes = (
"419 186 LINE",
"419 346 LINE",
"12 346 LINE",
"12 186 LINE"
);
}
);
width = 431;
},
{
layerId = "0BD25E4B-8A11-4E34-A837-2DA28743BADD";
paths = (
{
closed = 1;
nodes = (
"421 222 LINE",
"421 308 LINE",
"18 308 LINE",
"18 222 LINE"
);
}
);
width = 439;
}
);
leftKerningGroup = hyphen;
rightKerningGroup = hyphen;
unicode = 2014;
},
{
glyphname = hyphen;
lastChange = "2016-12-25 11:23:07 +0000";
layers = (
{
layerId = "262880E7-CFE1-4BDA-902E-E24798F3240A";
paths = (
{
closed = 1;
nodes = (
"276 259 LINE",
"276 280 LINE",
"23 280 LINE",
"23 259 LINE"
);
}
);
width = 299;
},
{
layerId = "4E2227F3-52E4-4048-A8EE-327B486EF0A4";
paths = (
{
closed = 1;
nodes = (
"299 186 LINE",
"299 346 LINE",
"12 346 LINE",
"12 186 LINE"
);
}
);
width = 311;
},
{
layerId = "0BD25E4B-8A11-4E34-A837-2DA28743BADD";
paths = (
{
closed = 1;
nodes = (
"287 222 LINE",
"287 308 LINE",
"18 308 LINE",
"18 222 LINE"
);
}
);
width = 305;
}
);
leftKerningGroup = hyphen;
rightKerningGroup = hyphen;
unicode = 002D;
},
{
glyphname = quotedblleft;
lastChange = "2016-12-25 11:23:07 +0000";
layers = (
{
layerId = "262880E7-CFE1-4BDA-902E-E24798F3240A";
paths = (
{
closed = 1;
nodes = (
"94 522 LINE",
"26 718 LINE",
"0 718 LINE",
"74 522 LINE"
);
},
{
closed = 1;
nodes = (
"194 522 LINE",
"126 718 LINE",
"100 718 LINE",
"174 522 LINE"
);
}
);
width = 194;
},
{
layerId = "4E2227F3-52E4-4048-A8EE-327B486EF0A4";
paths = (
{
closed = 1;
nodes = (
"253 501 LINE",
"187 756 LINE",
"0 756 LINE",
"111 501 LINE"
);
},
{
closed = 1;
nodes = (
"423 501 LINE",
"404 756 LINE",
"219 756 LINE",
"293 501 LINE"
);
}
);
width = 423;
},
{
layerId = "0BD25E4B-8A11-4E34-A837-2DA28743BADD";
paths = (
{
closed = 1;
nodes = (
"168 506 LINE",
"101 726 LINE",
"0 726 LINE",
"91 506 LINE"
);
},
{
closed = 1;
nodes = (
"301 506 LINE",
"256 726 LINE",
"156 726 LINE",
"230 506 LINE"
);
}
);
width = 301;
}
);
leftMetricsKey = "=quoteleft";
rightMetricsKey = "=quoteleft";
unicode = 201C;
},
{
glyphname = quoteleft;
lastChange = "2016-12-25 11:23:07 +0000";
layers = (
{
layerId = "262880E7-CFE1-4BDA-902E-E24798F3240A";
paths = (
{
closed = 1;
nodes = (
"26 718 LINE",
"0 718 LINE",
"74 522 LINE",
"94 522 LINE"
);
}
);
width = 94;
},
{
layerId = "4E2227F3-52E4-4048-A8EE-327B486EF0A4";
paths = (
{
closed = 1;
nodes = (
"188 756 LINE",
"0 756 LINE",
"83 501 LINE",
"231 501 LINE"
);
}
);
width = 231;
},
{
layerId = "0BD25E4B-8A11-4E34-A837-2DA28743BADD";
paths = (
{
closed = 1;
nodes = (
"102 726 LINE",
"0 726 LINE",
"78 506 LINE",
"158 506 LINE"
);
}
);
width = 158;
}
);
unicode = 2018;
},
{
glyphname = dollar;
lastChange = "2016-12-25 11:23:07 +0000";
layers = (
{
layerId = "262880E7-CFE1-4BDA-902E-E24798F3240A";
paths = (
{
closed = 1;
nodes = (
"349 -5 OFFCURVE",
"412 51 OFFCURVE",
"412 153 CURVE SMOOTH",
"412 263 OFFCURVE",
"339 316 OFFCURVE",
"257 372 CURVE SMOOTH",
"176 427 OFFCURVE",
"112 471 OFFCURVE",
"112 567 CURVE SMOOTH",
"112 653 OFFCURVE",
"164 705 OFFCURVE",
"248 705 CURVE SMOOTH",
"332 705 OFFCURVE",
"384 654 OFFCURVE",
"384 565 CURVE SMOOTH",
"384 515 LINE",
"406 515 LINE",
"406 567 LINE SMOOTH",
"406 670 OFFCURVE",
"346 726 OFFCURVE",
"248 726 CURVE SMOOTH",
"150 726 OFFCURVE",
"90 669 OFFCURVE",
"90 570 CURVE SMOOTH",
"90 460 OFFCURVE",
"165 406 OFFCURVE",
"243 353 CURVE SMOOTH",
"320 300 OFFCURVE",
"390 256 OFFCURVE",
"390 156 CURVE SMOOTH",
"390 69 OFFCURVE",
"335 15 OFFCURVE",
"250 15 CURVE SMOOTH",
"165 15 OFFCURVE",
"118 70 OFFCURVE",
"118 158 CURVE SMOOTH",
"118 206 LINE",
"96 206 LINE",
"96 154 LINE SMOOTH",
"96 51 OFFCURVE",
"152 -5 OFFCURVE",
"251 -5 CURVE SMOOTH"
);
},
{
closed = 1;
nodes = (
"265 -91 LINE",
"265 2 LINE",
"243 2 LINE",
"243 -91 LINE"
);
},
{
closed = 1;
nodes = (
"258 723 LINE",
"258 816 LINE",
"236 816 LINE",
"236 723 LINE"
);
}
);
width = 502;
},
{
layerId = "4E2227F3-52E4-4048-A8EE-327B486EF0A4";
paths = (
{
closed = 1;
nodes = (
"350 -8 OFFCURVE",
"436 74 OFFCURVE",
"436 199 CURVE SMOOTH",
"436 308 OFFCURVE",
"373 362 OFFCURVE",
"271 441 CURVE SMOOTH",
"207 491 OFFCURVE",
"192 511 OFFCURVE",
"192 552 CURVE SMOOTH",
"192 586 OFFCURVE",
"202 604 OFFCURVE",
"219 604 CURVE SMOOTH",
"235 604 OFFCURVE",
"246 586 OFFCURVE",
"246 558 CURVE SMOOTH",
"246 530 LINE",
"431 530 LINE",
"431 553 LINE SMOOTH",
"431 680 OFFCURVE",
"347 764 OFFCURVE",
"220 764 CURVE SMOOTH",
"91 764 OFFCURVE",
"7 680 OFFCURVE",
"7 555 CURVE SMOOTH",
"7 423 OFFCURVE",
"99 355 OFFCURVE",
"169 300 CURVE SMOOTH",
"235 249 OFFCURVE",
"251 231 OFFCURVE",
"251 198 CURVE SMOOTH",
"251 168 OFFCURVE",
"240 152 OFFCURVE",
"224 152 CURVE SMOOTH",
"208 152 OFFCURVE",
"197 170 OFFCURVE",
"197 200 CURVE SMOOTH",
"197 227 LINE",
"12 227 LINE",
"12 192 LINE SMOOTH",
"12 74 OFFCURVE",
"94 -8 OFFCURVE",
"222 -8 CURVE SMOOTH"
);
},
{
closed = 1;
nodes = (
"279 -75 LINE",
"276 53 LINE",
"163 53 LINE",
"160 -75 LINE"
);
},
{
closed = 1;
nodes = (
"276 714 LINE",
"279 841 LINE",
"162 841 LINE",
"165 714 LINE"
);
}
);
width = 443;
},
{
layerId = "0BD25E4B-8A11-4E34-A837-2DA28743BADD";
paths = (
{
closed = 1;
nodes = (
"349 -6 OFFCURVE",
"423 61 OFFCURVE",
"423 173 CURVE SMOOTH",
"423 280 OFFCURVE",
"355 333 OFFCURVE",
"264 399 CURVE SMOOTH",
"191 452 OFFCURVE",
"149 483 OFFCURVE",
"149 552 CURVE SMOOTH",
"149 613 OFFCURVE",
"182 649 OFFCURVE",
"234 649 CURVE SMOOTH",
"287 649 OFFCURVE",
"320 614 OFFCURVE",
"320 554 CURVE SMOOTH",
"320 515 LINE",
"418 515 LINE",
"418 553 LINE SMOOTH",
"418 666 OFFCURVE",
"346 734 OFFCURVE",
"235 734 CURVE SMOOTH",
"122 734 OFFCURVE",
"51 665 OFFCURVE",
"51 555 CURVE SMOOTH",
"51 436 OFFCURVE",
"134 376 OFFCURVE",
"208 323 CURVE SMOOTH",
"280 272 OFFCURVE",
"325 241 OFFCURVE",
"325 174 CURVE SMOOTH",
"325 114 OFFCURVE",
"291 79 OFFCURVE",
"238 79 CURVE SMOOTH",
"185 79 OFFCURVE",
"155 116 OFFCURVE",
"155 176 CURVE SMOOTH",
"155 213 LINE",
"57 213 LINE",
"57 170 LINE SMOOTH",
"57 61 OFFCURVE",
"125 -6 OFFCURVE",
"237 -6 CURVE SMOOTH"
);
},
{
closed = 1;
nodes = (
"272 -83 LINE",
"270 26 LINE",
"206 26 LINE",
"204 -83 LINE"
);
},
{
closed = 1;
nodes = (
"266 709 LINE",
"268 817 LINE",
"201 817 LINE",
"203 709 LINE"
);
}
);
width = 474;
}
);
unicode = 0024;
},
{
glyphname = at;
lastChange = "2016-12-25 11:23:07 +0000";
layers = (
{
components = (
{
name = a.alt;
transform = "{0.6667, 0, 0, 0.6667, 257, 115}";
}
);
layerId = "262880E7-CFE1-4BDA-902E-E24798F3240A";
paths = (
{
closed = 1;
nodes = (
"640 -73 OFFCURVE",
"802 95 OFFCURVE",
"802 299 CURVE SMOOTH",
"802 503 OFFCURVE",
"640 671 OFFCURVE",
"441 671 CURVE SMOOTH",
"242 671 OFFCURVE",
"80 503 OFFCURVE",
"80 299 CURVE SMOOTH",
"80 95 OFFCURVE",
"242 -73 OFFCURVE",
"441 -73 CURVE SMOOTH"
);
},
{
closed = 1;
nodes = (
"254 -52 OFFCURVE",
"102 105 OFFCURVE",
"102 299 CURVE SMOOTH",
"102 492 OFFCURVE",
"254 649 OFFCURVE",
"441 649 CURVE SMOOTH",
"628 649 OFFCURVE",
"780 492 OFFCURVE",
"780 299 CURVE SMOOTH",
"780 105 OFFCURVE",
"628 -52 OFFCURVE",
"441 -52 CURVE SMOOTH"
);
}
);
width = 882;
},
{
components = (
{
name = a.alt;
transform = "{0.5714, 0, 0, 0.5714, 284, 152}";
}
);
layerId = "4E2227F3-52E4-4048-A8EE-327B486EF0A4";
paths = (
{
closed = 1;
nodes = (
"623 -68 OFFCURVE",
"782 103 OFFCURVE",
"782 315 CURVE SMOOTH",
"782 525 OFFCURVE",
"623 696 OFFCURVE",
"429 696 CURVE SMOOTH",
"235 696 OFFCURVE",
"77 525 OFFCURVE",
"77 315 CURVE SMOOTH",
"77 103 OFFCURVE",
"235 -68 OFFCURVE",
"429 -68 CURVE SMOOTH"
);
},
{
closed = 1;
nodes = (
"279 13 OFFCURVE",
"157 149 OFFCURVE",
"157 315 CURVE SMOOTH",
"157 481 OFFCURVE",
"279 615 OFFCURVE",
"429 615 CURVE SMOOTH",
"579 615 OFFCURVE",
"702 481 OFFCURVE",
"702 315 CURVE SMOOTH",
"702 149 OFFCURVE",
"579 13 OFFCURVE",
"429 13 CURVE SMOOTH"
);
}
);
width = 862;
},
{
components = (
{
name = a.alt;
transform = "{0.6222, 0, 0, 0.6222, 270, 130}";
}
);
layerId = "0BD25E4B-8A11-4E34-A837-2DA28743BADD";
paths = (
{
closed = 1;
nodes = (
"632 -70 OFFCURVE",
"793 98 OFFCURVE",
"793 303 CURVE SMOOTH",
"793 507 OFFCURVE",
"632 674 OFFCURVE",
"435 674 CURVE SMOOTH",
"239 674 OFFCURVE",
"79 507 OFFCURVE",
"79 303 CURVE SMOOTH",
"79 98 OFFCURVE",
"239 -70 OFFCURVE",
"435 -70 CURVE SMOOTH"
);
},
{
closed = 1;
nodes = (
"266 -20 OFFCURVE",
"128 124 OFFCURVE",
"128 303 CURVE SMOOTH",
"128 480 OFFCURVE",
"266 625 OFFCURVE",
"435 625 CURVE SMOOTH",
"605 625 OFFCURVE",
"744 480 OFFCURVE",
"744 303 CURVE SMOOTH",
"744 124 OFFCURVE",
"605 -20 OFFCURVE",
"435 -20 CURVE SMOOTH"
);
}
);
width = 873;
}
);
unicode = 0040;
},
{
glyphname = copyright;
lastChange = "2016-12-25 11:23:07 +0000";
layers = (
{
components = (
{
name = C;
transform = "{0.5, 0, 0, 0.5, 308, 114}";
}
);
layerId = "262880E7-CFE1-4BDA-902E-E24798F3240A";
paths = (
{
closed = 1;
nodes = (
"640 -73 OFFCURVE",
"802 95 OFFCURVE",
"802 299 CURVE SMOOTH",
"802 503 OFFCURVE",
"640 671 OFFCURVE",
"441 671 CURVE SMOOTH",
"242 671 OFFCURVE",
"80 503 OFFCURVE",
"80 299 CURVE SMOOTH",
"80 95 OFFCURVE",
"242 -73 OFFCURVE",
"441 -73 CURVE SMOOTH"
);
},
{
closed = 1;
nodes = (
"254 -52 OFFCURVE",
"102 105 OFFCURVE",
"102 299 CURVE SMOOTH",
"102 492 OFFCURVE",
"254 649 OFFCURVE",
"441 649 CURVE SMOOTH",
"628 649 OFFCURVE",
"780 492 OFFCURVE",
"780 299 CURVE SMOOTH",
"780 105 OFFCURVE",
"628 -52 OFFCURVE",
"441 -52 CURVE SMOOTH"
);
}
);
width = 882;
},
{
components = (
{
name = C;
transform = "{0.5, 0, 0, 0.5, 301, 120}";
}
);
layerId = "4E2227F3-52E4-4048-A8EE-327B486EF0A4";
paths = (
{
closed = 1;
nodes = (
"623 -68 OFFCURVE",
"782 104 OFFCURVE",
"782 315 CURVE SMOOTH",
"782 525 OFFCURVE",
"623 696 OFFCURVE",
"429 696 CURVE SMOOTH",
"235 696 OFFCURVE",
"77 525 OFFCURVE",
"77 315 CURVE SMOOTH",
"77 104 OFFCURVE",
"235 -68 OFFCURVE",
"429 -68 CURVE SMOOTH"
);
},
{
closed = 1;
nodes = (
"279 13 OFFCURVE",
"157 149 OFFCURVE",
"157 315 CURVE SMOOTH",
"157 481 OFFCURVE",
"279 615 OFFCURVE",
"429 615 CURVE SMOOTH",
"579 615 OFFCURVE",
"702 481 OFFCURVE",
"702 315 CURVE SMOOTH",
"702 149 OFFCURVE",
"579 13 OFFCURVE",
"429 13 CURVE SMOOTH"
);
}
);
width = 882;
},
{
components = (
{
name = C;
transform = "{0.5, 0, 0, 0.5, 289, 115}";
}
);
layerId = "0BD25E4B-8A11-4E34-A837-2DA28743BADD";
paths = (
{
closed = 1;
nodes = (
"632 -70 OFFCURVE",
"793 98 OFFCURVE",
"793 303 CURVE SMOOTH",
"793 507 OFFCURVE",
"632 674 OFFCURVE",
"435 674 CURVE SMOOTH",
"239 674 OFFCURVE",
"79 507 OFFCURVE",
"79 303 CURVE SMOOTH",
"79 98 OFFCURVE",
"239 -70 OFFCURVE",
"435 -70 CURVE SMOOTH"
);
},
{
closed = 1;
nodes = (
"266 -20 OFFCURVE",
"128 124 OFFCURVE",
"128 303 CURVE SMOOTH",
"128 480 OFFCURVE",
"266 625 OFFCURVE",
"435 625 CURVE SMOOTH",
"605 625 OFFCURVE",
"744 480 OFFCURVE",
"744 303 CURVE SMOOTH",
"744 124 OFFCURVE",
"605 -20 OFFCURVE",
"435 -20 CURVE SMOOTH"
);
}
);
width = 882;
}
);
unicode = 00A9;
},
